# 3ds Max Wavefront OBJ Exporter v0.97b - (c)2007 guruware
# File Created: 27.01.2014 18:16:38

mtllib bottomlegleft.mtl

#
# object bottomlegleft001
#

v  -0.3614 0.9702 0.1690
v  -0.1096 0.3454 0.2840
v  -0.1333 0.8316 0.4074
v  0.2668 0.3566 0.2479
v  0.2341 0.8739 0.3544
v  0.3293 1.0080 0.1775
v  0.4093 0.6970 0.0400
v  -0.3598 1.2401 -0.4034
v  -0.2904 1.0429 -0.6125
v  -0.4060 0.9922 -0.4603
v  -0.4138 0.6699 0.0034
v  -0.4302 1.1736 -0.1842
v  -0.4567 0.8818 -0.3206
v  0.3231 1.2970 -0.3324
v  0.1795 1.0784 -0.6384
v  0.1423 1.2829 -0.4716
v  0.3192 1.0085 -0.4282
v  -0.0707 1.2221 -0.5939
v  -0.0803 1.2762 -0.5184
v  0.3834 1.2142 -0.1516
v  0.4138 0.9466 -0.2924
v  -0.4747 0.9387 -0.5093
v  -0.4409 0.9618 -0.5967
v  -0.4567 0.7426 -0.3533
v  0.3243 1.0063 -0.6389
v  0.3829 0.9781 -0.4755
v  -0.0555 0.9426 -0.6863
v  -0.0555 1.0823 -0.6530
v  -0.5260 0.8367 -0.4051
v  0.4437 0.8947 -0.3381
v  0.4510 0.4079 -0.0704
v  -0.3789 0.4062 -0.0485
v  -0.4589 0.5719 -0.5589
v  -0.4200 0.5955 -0.6553
v  -0.4274 0.5082 -0.3955
v  0.3806 0.6615 -0.7009
v  0.4409 0.6017 -0.5172
v  0.1130 0.5454 -0.7522
v  -0.5074 0.5646 -0.4384
v  0.4910 0.5916 -0.3471
v  0.4116 0.5268 -0.3071
v  -0.3361 0.5240 -0.5550
v  0.3192 0.5510 -0.5381
v  -0.1806 0.5324 -0.7415
v  0.4161 0.1369 -0.0513
v  0.3552 0.2389 -0.4271
v  -0.2730 0.1183 -0.0524
v  -0.2826 0.2028 -0.4062
v  0.1287 0.3262 -0.7257
v  -0.1648 0.3116 -0.6885
v  0.2938 -0.3307 0.2727
v  -0.0983 -0.3420 0.2947
v  0.3998 -0.3251 0.0113
v  0.3767 -0.3116 -0.3775
v  -0.2088 -0.3600 -0.0299
v  -0.2448 -0.3341 -0.3792
v  -0.0747 -0.2964 -0.5803
v  0.1259 -0.2919 -0.5933
v  -0.1406 -0.8175 0.4536
v  -0.0606 -0.7629 0.5443
v  0.4606 -0.8384 0.1172
v  0.4330 -0.7888 0.3741
v  0.4330 -0.8869 -0.1668
v  -0.2358 -0.9167 0.0975
v  -0.2088 -0.8559 -0.3161
v  -0.2195 -0.9342 -0.1211
v  -0.1857 -0.8930 -0.5443
v  -0.0685 -0.8885 -0.6108
v  0.3733 -0.9066 -0.4671
v  0.2296 -0.8592 -0.5775
v  -0.0059 -1.0767 -0.6857
v  0.1716 -1.0717 -0.6767
v  0.3203 -0.7297 0.5217
v  -0.1800 -1.2689 0.3324
v  -0.1361 -0.9702 0.4924
v  -0.2324 -1.2514 0.0924
v  0.4561 -1.0469 0.5324
v  0.3372 -0.9945 0.7156
v  0.5248 -1.1410 0.3674
v  -0.0532 -0.9928 0.7133
v  0.0820 -0.9933 0.7522
v  0.5260 -1.4514 0.2479
v  0.4803 -1.1798 -0.0552
v  0.5113 -1.3742 0.0186
v  -0.1361 -0.9054 -0.5071
v  -0.0589 -0.9105 -0.5967
v  0.3502 -0.9263 -0.4237
v  0.3761 -0.9094 -0.1572
v  -0.1423 -0.8406 -0.3076
v  0.2223 -0.8846 -0.5291
v  -0.1552 -1.2694 0.3397
v  -0.1620 -1.2553 0.0918
v  -0.0882 -1.0018 0.4733
v  -0.1761 -0.9511 -0.1166
v  0.0132 -1.0773 -0.6248
v  0.1710 -1.0728 -0.6170
v  0.3941 -1.1872 -0.0490
v  0.4071 -1.3906 0.0304
v  0.4555 -1.4548 0.2485
v  0.1056 -1.0147 0.7015
v  -0.0487 -1.0288 0.6085
v  0.4719 0.8406 -0.1132
v  -0.1077 0.9846 0.3916
v  0.1825 1.0277 0.3535
v  0.2577 1.1635 0.2259
v  -0.0654 1.4346 -0.2723
v  0.2999 1.3706 -0.0087
v  0.2523 1.4548 -0.1390
v  0.1097 1.4413 -0.2388
v  -0.2856 1.3976 -0.1898
v  -0.3412 1.3293 -0.0321
v  -0.2874 1.1247 0.2202
# 112 vertices

vn -0.8973 -0.0794 0.4342
vn -0.4339 -0.1570 0.8872
vn -0.3891 -0.2295 0.8921
vn 0.5800 -0.0642 0.8121
vn 0.6365 -0.1168 0.7624
vn 0.9048 0.0810 0.4180
vn 0.8894 -0.0095 0.4570
vn -0.7861 0.3933 -0.4768
vn -0.4218 0.4137 -0.8068
vn -0.8335 0.5299 -0.1561
vn -0.9275 -0.1257 0.3521
vn -0.9924 0.1195 -0.0302
vn -0.9671 0.1693 0.1897
vn 0.8592 0.2398 -0.4520
vn 0.3329 0.4713 -0.8167
vn 0.3433 0.6510 -0.6771
vn 0.7571 0.6079 -0.2392
vn -0.0955 0.6298 -0.7709
vn -0.1376 0.7968 -0.5883
vn 0.9716 0.2081 -0.1124
vn 0.9376 0.3165 -0.1437
vn -0.8643 0.4887 -0.1191
vn -0.6590 0.5120 -0.5510
vn -0.9050 -0.1479 0.3989
vn 0.5692 0.5680 -0.5945
vn 0.7761 0.6158 -0.1358
vn -0.0717 0.1996 -0.9773
vn -0.0705 0.3088 -0.9485
vn -0.9732 0.1429 0.1803
vn 0.9621 0.2653 0.0636
vn 0.9853 -0.0874 0.1465
vn -0.9122 -0.2652 0.3124
vn -0.7476 -0.5336 -0.3954
vn -0.6122 -0.3488 -0.7097
vn -0.8831 -0.4681 -0.0311
vn 0.6426 -0.2098 -0.7369
vn 0.8205 -0.4677 -0.3287
vn 0.2440 -0.0573 -0.9681
vn -0.8810 -0.4372 0.1810
vn 0.9032 -0.3492 0.2496
vn 0.9596 -0.2463 -0.1362
vn -0.5645 -0.6853 -0.4602
vn 0.6827 -0.5430 -0.4890
vn -0.3480 -0.1308 -0.9283
vn 0.9873 -0.0351 0.1552
vn 0.8963 -0.0819 -0.4357
vn -0.9516 -0.1944 0.2381
vn -0.9332 -0.2441 -0.2637
vn 0.3818 -0.1592 -0.9104
vn -0.5688 -0.2077 -0.7958
vn 0.6209 0.2615 0.7390
vn -0.6010 0.2081 0.7717
vn 0.9847 0.0684 0.1600
vn 0.8987 0.0293 -0.4375
vn -0.9813 0.0065 0.1921
vn -0.9631 -0.0408 -0.2659
vn -0.4443 -0.0666 -0.8934
vn 0.3484 -0.0195 -0.9371
vn -0.9115 0.1634 0.3774
vn -0.4604 0.4893 0.7407
vn 0.9848 0.1730 -0.0174
vn 0.9121 0.3160 0.2613
vn 0.9029 -0.2804 -0.3257
vn -0.9941 0.0189 0.1065
vn -0.6734 -0.7207 -0.1647
vn -0.8160 -0.4529 -0.3592
vn -0.6916 -0.5883 -0.4190
vn -0.7333 -0.2294 -0.6401
vn 0.6736 -0.5193 -0.5259
vn 0.7754 -0.1332 -0.6173
vn -0.5144 -0.6182 -0.5943
vn 0.5292 -0.5726 -0.6262
vn 0.4733 0.5195 0.7115
vn -0.6040 -0.6894 0.3999
vn -0.8757 -0.2737 0.3979
vn -0.6805 -0.6607 -0.3169
vn 0.8816 0.3086 0.3572
vn 0.4871 0.4675 0.7377
vn 0.9886 0.1346 0.0676
vn -0.5581 -0.2846 0.7795
vn -0.0781 -0.2370 0.9684
vn 0.6338 -0.6997 0.3297
vn 0.6691 -0.1812 -0.7208
vn 0.6696 -0.4689 -0.5760
vn -0.1633 -0.9787 0.1243
vn -0.6088 -0.7766 0.1617
vn 0.3943 -0.9005 -0.1834
vn 0.1907 -0.7545 -0.6280
vn 0.1900 -0.9725 -0.1349
vn 0.2089 -0.9779 0.0028
vn -0.2048 -0.7602 0.6166
vn -0.0568 -0.8759 -0.4791
vn -0.2760 -0.7607 0.5876
vn -0.1661 -0.7321 -0.6606
vn -0.3523 -0.7389 0.5744
vn 0.4733 -0.7356 0.4847
vn -0.0379 -0.3631 -0.9310
vn 0.0297 -0.7311 -0.6816
vn 0.0480 -0.9469 0.3179
vn -0.0275 -0.9254 0.3779
vn -0.5434 -0.8085 0.2259
vn 0.9947 0.0831 0.0611
vn -0.0311 0.7976 0.6023
vn -0.0065 0.6869 0.7267
vn -0.1604 0.7825 0.6016
vn -0.0707 0.8556 0.5128
vn -0.3203 0.7380 0.5939
vn -0.2834 0.7867 0.5485
vn -0.0170 0.9938 -0.1097
vn -0.0066 0.9187 0.3950
vn 0.1290 0.8326 0.5387
vn 0.0057 0.7772 0.6292
vn -0.9747 0.0236 0.2224
vn -0.9743 0.0254 0.2240
vn -0.9586 0.0665 0.2769
vn -0.3304 -0.9436 -0.0204
vn -0.9435 -0.3034 0.1336
vn -0.6194 -0.7806 -0.0837
vn -0.6582 0.1275 0.7419
vn -0.9042 0.2464 0.3489
vn -0.8379 0.5388 -0.0876
vn -0.3143 0.8097 -0.4956
vn 0.0824 0.8325 -0.5479
vn 0.3131 0.7975 -0.5157
vn 0.8762 0.4798 -0.0462
vn 0.9091 0.2462 0.3359
vn 0.7623 0.2097 0.6123
vn 0.1287 0.0645 0.9896
vn -0.0092 -0.9911 -0.1331
vn -0.1728 -0.9849 -0.0065
vn 0.3279 -0.8894 -0.3187
vn -0.2712 -0.9624 -0.0173
vn 0.9737 -0.2243 -0.0393
vn 0.9870 -0.1072 -0.1197
vn -0.0768 -0.9930 -0.0902
vn 0.0868 -0.9962 0.0067
vn 0.0560 -0.9950 -0.0825
# 137 vertex normals

vt 0.8845 0.2734 0.0000
vt 0.8367 0.2151 0.0000
vt 0.8454 0.2717 0.0000
vt 0.7927 0.2201 0.0000
vt 0.8036 0.2797 0.0000
vt 0.7787 0.2935 0.0000
vt 0.7653 0.2590 0.0000
vt 0.6337 0.3343 0.0000
vt 0.6403 0.3055 0.0000
vt 0.6203 0.3104 0.0000
vt 0.8871 0.2404 0.0000
vt 0.9296 0.2744 0.0000
vt 0.9277 0.2464 0.0000
vt 0.7172 0.3255 0.0000
vt 0.6875 0.3000 0.0000
vt 0.6928 0.3259 0.0000
vt 0.7137 0.2960 0.0000
vt 0.6924 0.3259 0.0000
vt 0.6664 0.3202 0.0000
vt 0.6671 0.3290 0.0000
vt 0.6002 0.3053 0.0000
vt 0.6088 0.3394 0.0000
vt 0.7393 0.3162 0.0000
vt 0.7290 0.2860 0.0000
vt 0.6179 0.3013 0.0000
vt 0.6241 0.3000 0.0000
vt 0.9251 0.2373 0.0000
vt 0.6981 0.2907 0.0000
vt 0.7129 0.2894 0.0000
vt 0.6613 0.2914 0.0000
vt 0.6644 0.3052 0.0000
vt 0.6055 0.2938 0.0000
vt 0.5950 0.2866 0.0000
vt 0.7265 0.2802 0.0000
vt 0.7537 0.2279 0.0000
vt 0.8832 0.2156 0.0000
vt 0.6118 0.2630 0.0000
vt 0.6205 0.2637 0.0000
vt 0.9214 0.2187 0.0000
vt 0.6967 0.2580 0.0000
vt 0.7122 0.2504 0.0000
vt 0.6720 0.2474 0.0000
vt 0.5956 0.2554 0.0000
vt 0.6007 0.2652 0.0000
vt 0.7272 0.2487 0.0000
vt 0.7301 0.2401 0.0000
vt 0.6164 0.2508 0.0000
vt 0.7033 0.2414 0.0000
vt 0.6424 0.2508 0.0000
vt 0.7528 0.1977 0.0000
vt 0.7118 0.2109 0.0000
vt 0.8758 0.1867 0.0000
vt 0.9144 0.1916 0.0000
vt 0.6723 0.2268 0.0000
vt 0.6398 0.2285 0.0000
vt 0.6070 0.2154 0.0000
vt 0.7850 0.1409 0.0000
vt 0.8326 0.1371 0.0000
vt 0.7509 0.1475 0.0000
vt 0.7060 0.1554 0.0000
vt 0.8725 0.1374 0.0000
vt 0.9099 0.1439 0.0000
vt 0.6145 0.1606 0.0000
vt 0.6435 0.1632 0.0000
vt 0.6683 0.1617 0.0000
vt 0.8373 0.0813 0.0000
vt 0.8252 0.0844 0.0000
vt 0.7432 0.0914 0.0000
vt 0.7679 0.0888 0.0000
vt 0.7160 0.0940 0.0000
vt 0.8767 0.0776 0.0000
vt 0.9176 0.0903 0.0000
vt 0.8992 0.0781 0.0000
vt 0.6227 0.1011 0.0000
vt 0.6355 0.1000 0.0000
vt 0.6854 0.0945 0.0000
vt 0.5999 0.1071 0.0000
vt 0.6684 0.1010 0.0000
vt 0.6406 0.0803 0.0000
vt 0.6558 0.0793 0.0000
vt 0.7861 0.0890 0.0000
vt 0.8596 0.0357 0.0000
vt 0.8383 0.0647 0.0000
vt 0.8831 0.0425 0.0000
vt 0.7712 0.0566 0.0000
vt 0.7872 0.0537 0.0000
vt 0.7554 0.0514 0.0000
vt 0.8192 0.0546 0.0000
vt 0.8098 0.0523 0.0000
vt 0.7324 0.0260 0.0000
vt 0.7133 0.0621 0.0000
vt 0.7149 0.0413 0.0000
vt 0.6175 0.0788 0.0000
vt 0.6314 0.0827 0.0000
vt 0.6283 0.0792 0.0000
vt 0.6191 0.0837 0.0000
vt 0.6812 0.0728 0.0000
vt 0.7095 0.0768 0.0000
vt 0.7033 0.0717 0.0000
vt 0.6798 0.0773 0.0000
vt 0.5950 0.0827 0.0000
vt 0.5970 0.0895 0.0000
vt 0.6658 0.0790 0.0000
vt 0.6633 0.0836 0.0000
vt 0.8585 0.0215 0.0000
vt 0.8832 0.0304 0.0000
vt 0.8866 0.0252 0.0000
vt 0.8598 0.0236 0.0000
vt 0.8395 0.0473 0.0000
vt 0.8384 0.0526 0.0000
vt 0.9020 0.0620 0.0000
vt 0.9177 0.0783 0.0000
vt 0.9221 0.0728 0.0000
vt 0.8993 0.0661 0.0000
vt 0.6342 0.0602 0.0000
vt 0.6512 0.0626 0.0000
vt 0.6539 0.0592 0.0000
vt 0.6364 0.0636 0.0000
vt 0.6979 0.0452 0.0000
vt 0.7084 0.0258 0.0000
vt 0.7007 0.0203 0.0000
vt 0.7069 0.0459 0.0000
vt 0.7477 0.0355 0.0000
vt 0.7257 0.0060 0.0000
vt 0.7254 0.0109 0.0000
vt 0.8099 0.0403 0.0000
vt 0.8090 0.0342 0.0000
vt 0.7873 0.0416 0.0000
vt 0.8284 0.0378 0.0000
vt 0.8193 0.0426 0.0000
vt 0.5457 0.1716 0.0000
vt 0.5485 0.1814 0.0000
vt 0.7477 0.2744 0.0000
# 133 texture coords

g bottomlegleft001
usemtl _GeminiMaterial__47
s 930
f 1/1/1 2/2/2 3/3/3 
s 931
f 4/4/4 3/3/3 2/2/2 
s 932
f 3/3/3 4/4/4 5/5/5 
s 933
f 6/6/6 4/4/4 7/7/7 
s 934
f 5/5/5 4/4/4 6/6/6 
s 935
f 8/8/8 9/9/9 10/10/10 
s 936
f 11/11/11 12/12/12 13/13/13 
s 937
f 12/12/12 11/11/11 1/1/1 
s 939
f 14/14/14 15/15/15 16/16/16 
s 940
f 14/14/14 17/17/17 15/15/15 
s 941
f 16/18/16 18/19/18 19/20/19 
s 943
f 19/20/19 18/19/18 8/8/8 
s 944
f 13/21/13 8/8/8 10/10/10 
s 945
f 8/8/8 13/21/13 12/22/12 
s 946
f 17/17/17 20/23/20 21/24/21 
s 947
f 20/23/20 17/17/17 14/14/14 
s 948
f 22/25/22 9/9/9 23/26/23 
s 949
f 9/9/9 22/25/22 10/10/10 
s 950
f 13/13/13 24/27/24 11/11/11 
s 951
f 25/28/25 17/17/17 26/29/26 
s 952
f 17/17/17 25/28/25 15/15/15 
s 953
f 27/30/27 15/15/15 25/28/25 
s 954
f 15/15/15 27/30/27 28/31/28 
s 955
f 23/26/23 28/31/28 27/30/27 
s 956
f 28/31/28 23/26/23 9/9/9 
s 957
f 22/25/22 13/21/13 10/10/10 
s 958
f 13/21/13 22/25/22 29/32/29 
s 959
f 13/21/13 29/32/29 24/33/24 
s 960
f 26/29/26 21/24/21 30/34/30 
s 961
f 21/24/21 26/29/26 17/17/17 
s 962
f 4/4/4 31/35/31 7/7/7 
s 963
f 11/11/11 32/36/32 2/2/2 
s 964
f 33/37/33 23/26/23 34/38/34 
s 965
f 23/26/23 33/37/33 22/25/22 
s 966
f 32/36/32 24/27/24 35/39/35 
s 967
f 24/27/24 32/36/32 11/11/11 
s 968
f 36/40/36 26/29/26 37/41/37 
s 969
f 26/29/26 36/40/36 25/28/25 
s 970
f 36/40/36 27/30/27 25/28/25 
s 971
f 27/30/27 36/40/36 38/42/38 
s 972
f 35/43/35 29/32/29 39/44/39 
s 973
f 29/32/29 35/43/35 24/33/24 
s 974
f 37/41/37 30/34/30 40/45/40 
s 975
f 30/34/30 37/41/37 26/29/26 
s 976
f 39/44/39 22/25/22 33/37/33 
s 977
f 22/25/22 39/44/39 29/32/29 
s 978
f 40/45/40 21/24/21 41/46/41 
s 979
f 21/24/21 40/45/40 30/34/30 
s 980
f 1/1/1 11/11/11 2/2/2 
s 981
f 34/38/34 42/47/42 33/37/33 
s 982
f 37/41/37 43/48/43 36/40/36 
s 983
f 36/40/36 43/48/43 38/42/38 
s 984
f 43/48/43 40/45/40 41/46/41 
s 985
f 40/45/40 43/48/43 37/41/37 
s 986
f 35/43/35 33/37/33 42/47/42 
s 987
f 33/37/33 35/43/35 39/44/39 
s 988
f 34/38/34 44/49/44 42/47/42 
s 989
f 27/30/27 38/42/38 44/49/44 
s 990
f 34/38/34 27/30/27 44/49/44 
s 991
f 27/30/27 34/38/34 23/26/23 
s 992
f 4/4/4 45/50/45 31/35/31 
s 993
f 46/51/46 31/35/31 45/50/45 
s 994
f 31/35/31 46/51/46 41/46/41 
s 995
f 32/36/32 47/52/47 2/2/2 
s 996
f 47/52/47 35/39/35 48/53/48 
s 997
f 35/39/35 47/52/47 32/36/32 
s 998
f 49/54/49 44/49/44 38/42/38 
s 999
f 44/49/44 49/54/49 50/55/50 
s 1000
f 48/56/48 44/49/44 50/55/50 
s 1001
f 44/49/44 48/56/48 42/47/42 
s 1002
f 41/46/41 46/51/46 43/48/43 
s 1003
f 42/47/42 48/56/48 35/43/35 
s 1004
f 49/54/49 43/48/43 46/51/46 
s 1005
f 43/48/43 49/54/49 38/42/38 
s 1006
f 51/57/51 2/2/2 52/58/52 
s 1007
f 2/2/2 51/57/51 4/4/4 
s 1008
f 53/59/53 4/4/4 51/57/51 
s 1009
f 4/4/4 53/59/53 45/50/45 
s 1010
f 54/60/54 45/50/45 53/59/53 
s 1011
f 45/50/45 54/60/54 46/51/46 
s 1012
f 52/58/52 47/52/47 55/61/55 
s 1013
f 47/52/47 52/58/52 2/2/2 
s 1014
f 55/61/55 48/53/48 56/62/56 
s 1015
f 48/53/48 55/61/55 47/52/47 
s 1016
f 56/63/56 50/55/50 57/64/57 
s 1017
f 50/55/50 56/63/56 48/56/48 
s 1018
f 58/65/58 46/51/46 54/60/54 
s 1019
f 46/51/46 58/65/58 49/54/49 
s 1020
f 57/64/57 49/54/49 58/65/58 
s 1021
f 49/54/49 57/64/57 50/55/50 
s 1022
f 52/58/52 59/66/59 60/67/60 
s 1023
f 61/68/61 51/57/51 62/69/62 
s 1024
f 51/57/51 61/68/61 53/59/53 
s 1025
f 63/70/63 53/59/53 61/68/61 
s 1026
f 53/59/53 63/70/63 54/60/54 
s 1027
f 59/66/59 55/61/55 64/71/64 
s 1028
f 55/61/55 59/66/59 52/58/52 
s 1029
f 56/62/56 65/72/65 66/73/66 
s 1030
f 67/74/67 57/64/57 68/75/68 
s 1031
f 57/64/57 67/74/67 56/63/56 
s 1032
f 54/60/54 63/70/63 69/76/69 
s 1033
f 56/63/56 67/74/67 65/77/65 
s 1034
f 70/78/70 54/60/54 69/76/69 
s 1035
f 54/60/54 70/78/70 58/65/58 
s 1036
f 71/79/71 58/65/58 72/80/72 
s 1037
f 58/65/58 71/79/71 57/64/57 
s 1038
f 51/57/51 73/81/73 62/69/62 
s 1039
f 73/81/73 52/58/52 60/67/60 
s 1040
f 52/58/52 73/81/73 51/57/51 
s 1041
f 64/71/64 74/82/74 75/83/75 
s 1042
f 74/82/74 64/71/64 76/84/76 
s 1043
f 64/71/64 56/62/56 66/73/66 
s 1044
f 56/62/56 64/71/64 55/61/55 
s 1045
f 64/71/64 66/73/66 76/84/76 
s 1046
f 57/64/57 71/79/71 68/75/68 
s 1047
f 70/78/70 72/80/72 58/65/58 
s 1048
f 77/85/77 73/81/73 78/86/78 
s 1049
f 73/81/73 77/85/77 62/69/62 
s 1050
f 79/87/79 62/69/62 77/85/77 
s 1051
f 62/69/62 79/87/79 61/68/61 
s 1052
f 64/71/64 75/83/75 59/66/59 
s 1053
f 60/67/60 80/88/80 81/89/81 
s 1054
f 80/88/80 59/66/59 75/83/75 
s 1055
f 59/66/59 80/88/80 60/67/60 
s 1056
f 82/90/82 83/91/83 79/87/79 
s 1057
f 83/91/83 82/90/82 84/92/84 
s 1058
f 85/93/85 68/94/68 86/95/86 
s 1059
f 68/94/68 85/93/85 67/96/67 
s 1060
f 87/97/87 63/98/63 88/99/88 
s 1061
f 63/98/63 87/97/87 69/100/69 
s 1062
f 89/101/89 67/96/67 85/93/85 
s 1063
f 67/96/67 89/101/89 65/102/65 
s 1064
f 90/103/90 69/100/69 87/97/87 
s 1065
f 69/100/69 90/103/90 70/104/70 
s 1066
f 91/105/91 76/106/76 92/107/92 
s 1067
f 76/106/76 91/105/91 74/108/74 
s 1068
f 93/109/93 74/108/74 91/105/91 
s 1069
f 74/108/74 93/109/93 75/110/75 
s 1070
f 94/111/94 65/112/65 89/113/89 
s 1071
f 65/112/65 94/111/94 66/114/66 
s 1072
f 92/107/92 66/114/66 94/111/94 
s 1073
f 66/114/66 92/107/92 76/106/76 
s 1074
f 95/115/95 72/116/72 96/117/96 
s 1075
f 72/116/72 95/115/95 71/118/71 
s 1076
f 86/95/86 71/118/71 95/115/95 
s 1077
f 71/118/71 86/95/86 68/94/68 
s 1078
f 96/117/96 70/104/70 90/103/90 
s 1079
f 70/104/70 96/117/96 72/116/72 
s 1080
f 97/119/97 84/120/84 98/121/98 
s 1081
f 84/120/84 97/119/97 83/122/83 
s 1082
f 79/123/79 99/124/99 82/125/82 
s 1083
f 98/121/98 82/125/82 99/124/99 
s 1084
f 82/125/82 98/121/98 84/120/84 
s 1085
f 81/126/81 100/127/100 78/128/78 
s 1086
f 101/129/101 75/110/75 93/109/93 
s 1087
f 75/110/75 101/129/101 80/130/80 
s 1101
f 79/87/79 83/91/83 61/68/61 
s 1102
f 88/99/88 83/122/83 97/119/97 
s 1103
f 83/122/83 88/99/88 63/98/63 
s 3153
f 85/131/85 86/132/86 90/103/90 
s 1217
f 61/68/61 83/91/83 63/70/63 
s 1237
f 60/67/60 81/89/81 73/81/73 
s 1238
f 73/81/73 81/89/81 78/86/78 
s 1240
f 101/129/101 81/126/81 80/130/80 
s 1241
f 81/126/81 101/129/101 100/127/100 
s 1277
f 20/23/20 102/133/102 21/24/21 
s 1278
f 41/46/41 102/133/102 31/35/31 
s 1279
f 102/133/102 41/46/41 21/24/21 
s 1280
f 8/8/8 18/19/18 9/9/9 
s 1281
f 18/19/18 16/16/16 15/15/15 
s 1282
f 9/9/9 18/19/18 28/31/28 
s 1283
f 18/19/18 15/15/15 28/31/28 
s 1284
f 102/133/102 6/6/6 7/7/7 
s 1285
f 6/6/6 102/133/102 20/23/20 
s 1286
f 7/7/7 31/35/31 102/133/102 
s 2048
f 103/3/103 104/5/104 105/6/105 106/20/106 
f 105/6/105 107/23/107 108/14/108 106/20/106 
f 108/14/108 109/18/109 106/20/106 
f 106/20/106 110/8/110 111/12/111 103/3/103 
f 112/1/112 103/3/103 111/12/111 
f 97/119/113 98/121/114 99/124/115 88/99/116 
f 88/99/116 99/124/115 79/87/117 77/85/118 
s off
f 3/3/119 103/3/119 112/1/119 1/1/119 
f 1/1/120 112/1/120 111/12/120 12/12/120 
f 12/22/121 111/12/121 110/8/121 8/8/121 
f 8/8/122 110/8/122 106/20/122 19/20/122 
f 19/20/123 106/20/123 109/18/123 16/18/123 
f 16/16/124 109/18/124 108/14/124 14/14/124 
f 14/14/125 108/14/125 107/23/125 20/23/125 
f 20/23/126 107/23/126 105/6/126 6/6/126 
f 6/6/127 105/6/127 104/5/127 5/5/127 
f 5/5/128 104/5/128 103/3/128 3/3/128 
s 2048
f 89/101/129 87/97/130 88/99/116 94/111/131 
f 93/109/132 91/105/133 92/107/134 94/111/131 
f 78/128/135 100/127/136 101/129/137 88/99/116 
f 101/129/137 93/109/132 94/111/131 88/99/116 
f 77/85/118 78/128/135 88/99/116 
s 3153
f 86/132/86 95/115/95 96/117/96 90/103/90 
s 2048
f 89/101/129 85/131/85 90/103/90 87/97/130 
# 21 polygons - 178 triangles

