# 3ds Max Wavefront OBJ Exporter v0.97b - (c)2007 guruware
# File Created: 27.01.2014 18:18:58

mtllib footright.mtl

#
# object FootRight001
#

v  0.3307 0.0837 -0.7944
v  0.3713 -0.2031 -0.9026
v  0.2186 -0.1699 -0.9888
v  0.1938 0.1034 -0.8959
v  0.0361 0.1079 -0.8880
v  -0.1082 -0.0031 -0.7240
v  -0.1431 0.2544 -0.6947
v  -0.0152 0.2961 -0.8001
v  0.0349 -0.2054 -0.9595
v  -0.1871 -0.0065 -0.3200
v  -0.1690 0.2713 -0.4282
v  -0.0834 -0.3400 -0.8198
v  -0.1504 -0.3400 -0.4254
v  -0.2282 -0.3400 -0.0051
v  -0.2485 -0.2741 -0.0225
v  -0.2000 -0.2099 -0.2406
v  0.4198 -0.0285 -0.5510
v  0.3431 0.2752 -0.7781
v  0.3493 0.3400 -0.5786
v  0.3831 0.2296 -0.3876
v  0.3690 -0.0747 -0.1792
v  0.3606 -0.3400 -0.3110
v  0.4265 -0.3400 -0.7133
v  0.3133 -0.3400 0.0823
v  0.3623 -0.0887 0.0687
v  0.3752 -0.0335 0.2000
v  0.2952 0.1789 0.2023
v  0.2558 0.1518 0.3375
v  0.2862 -0.0273 0.5257
v  0.1093 0.0200 0.6818
v  0.1014 0.1659 0.4305
v  -0.1302 0.1862 0.4445
v  -0.1876 0.0256 0.6581
v  -0.3268 -0.0099 0.4536
v  -0.2490 0.1338 0.2614
v  -0.3262 -0.0380 0.1178
v  -0.3178 0.0397 0.0963
v  -0.1014 -0.1079 0.9623
v  0.0918 -0.1079 0.9252
v  0.2581 -0.1186 0.7533
v  0.0873 -0.3400 0.9516
v  0.2513 -0.3400 0.7319
v  -0.1087 -0.3400 0.9888
v  -0.2721 -0.1073 0.8852
v  -0.2761 -0.3400 0.9145
v  -0.3916 -0.1163 0.6716
v  -0.3764 -0.3400 0.6603
v  -0.4361 -0.2843 0.4412
v  -0.4260 -0.0707 0.4000
v  -0.3747 -0.2149 0.0901
v  -0.3296 -0.2228 0.0338
v  -0.3437 -0.3338 0.1110
v  -0.3831 -0.2933 0.1403
v  -0.3865 -0.0645 0.1640
v  0.3814 -0.0668 0.4902
v  0.4254 -0.0645 0.2581
v  0.3764 -0.2876 0.5313
v  0.4096 -0.2257 0.1087
v  0.4361 -0.2099 0.1662
v  0.4299 -0.2921 0.2288
v  0.4006 -0.3400 0.1916
v  0.3313 -0.3400 0.5854
v  -0.4085 -0.3400 0.4958
# 63 vertices

vn 0.8641 0.1691 -0.4741
vn 0.6750 -0.2425 -0.6969
vn 0.2064 -0.2552 -0.9446
vn 0.2831 0.3318 -0.8998
vn -0.5559 0.1682 -0.8141
vn -0.9119 -0.0047 -0.4105
vn -0.8964 -0.0001 -0.4432
vn -0.6585 0.1637 -0.7346
vn -0.3632 -0.2860 -0.8867
vn -0.9819 -0.0420 -0.1849
vn -0.9948 0.0262 -0.0984
vn -0.5900 -0.6608 -0.4639
vn -0.6726 -0.7272 -0.1373
vn -0.4670 -0.8595 -0.2076
vn -0.9632 -0.2684 -0.0104
vn -0.9716 -0.0388 -0.2333
vn 0.9975 0.0642 -0.0278
vn 0.9758 0.1014 -0.1937
vn 0.9801 0.1813 -0.0804
vn 0.9917 0.1267 0.0222
vn 0.9911 -0.0803 0.1065
vn 0.6660 -0.7406 0.0895
vn 0.7138 -0.6643 -0.2219
vn 0.4496 -0.8750 -0.1795
vn 0.9693 0.0732 -0.2348
vn 0.8739 0.4675 -0.1330
vn 0.9176 0.3435 0.2002
vn 0.7726 0.5208 0.3631
vn 0.5825 0.7292 0.3591
vn 0.2871 0.8321 0.4746
vn 0.2439 0.8419 0.4813
vn -0.3628 0.8191 0.4443
vn -0.3309 0.8506 0.4086
vn -0.6433 0.7477 0.1646
vn -0.8420 0.5275 0.1134
vn -0.8591 0.3132 -0.4048
vn -0.9894 0.1150 0.0888
vn -0.0951 0.5365 0.8385
vn 0.4073 0.4990 0.7649
vn 0.7538 0.3728 0.5412
vn 0.3876 -0.6107 0.6905
vn 0.5749 -0.7238 0.3816
vn -0.0957 -0.6011 0.7934
vn -0.5825 0.5072 0.6352
vn -0.5472 -0.6032 0.5803
vn -0.8627 0.3982 0.3119
vn -0.6606 -0.7211 0.2088
vn -0.9747 -0.2232 -0.0113
vn -0.8700 0.4931 -0.0030
vn -0.8746 0.0049 -0.4848
vn -0.4481 0.1162 -0.8864
vn -0.5098 -0.7952 -0.3281
vn -0.8935 -0.3329 -0.3013
vn -0.8069 0.5008 -0.3132
vn 0.8055 0.5265 0.2718
vn 0.8622 0.5050 -0.0388
vn 0.9259 -0.2391 0.2924
vn 0.7662 -0.0996 -0.6349
vn 0.9633 0.0449 -0.2646
vn 0.9503 -0.3113 0.0105
vn 0.5783 -0.7953 -0.1818
vn 0.5589 -0.7891 0.2549
vn -0.5988 -0.7988 0.0581
vn 0.1517 0.5028 -0.8510
vn -0.0723 0.9062 -0.4166
vn 0.1718 0.6743 -0.7182
vn 0.3114 0.2660 -0.9123
vn 0.0355 0.9889 0.1444
vn -0.4009 0.9160 0.0163
vn -0.9544 -0.0531 -0.2937
vn -0.9436 0.3091 -0.1184
vn 0.5055 0.8354 0.2157
vn 0.9870 0.1072 0.1197
vn 0.8859 0.4320 0.1691
vn -0.3786 0.9207 -0.0952
vn 0.0723 0.9973 -0.0129
vn -0.3264 0.9436 0.0553
vn 0.0640 0.9477 -0.3127
vn 0.0050 0.9956 0.0934
vn 0.2403 0.9360 0.2573
vn 0.9737 0.2243 0.0393
vn -0.9579 -0.0798 -0.2757
vn -0.9614 -0.1182 -0.2485
# 83 vertex normals

vt 0.5629 0.1685 0.0000
vt 0.5911 0.1672 0.0000
vt 0.5902 0.1830 0.0000
vt 0.5644 0.1841 0.0000
vt 0.4205 0.1957 0.0000
vt 0.4159 0.1741 0.0000
vt 0.4394 0.1766 0.0000
vt 0.4392 0.1917 0.0000
vt 0.5917 0.1999 0.0000
vt 0.5630 0.1981 0.0000
vt 0.4249 0.1381 0.0000
vt 0.4466 0.1538 0.0000
vt 0.3920 0.1934 0.0000
vt 0.3869 0.1754 0.0000
vt 0.3964 0.1410 0.0000
vt 0.4075 0.1042 0.0000
vt 0.4090 0.1058 0.0000
vt 0.4091 0.1266 0.0000
vt 0.5653 0.1430 0.0000
vt 0.5457 0.1716 0.0000
vt 0.5346 0.1569 0.0000
vt 0.5382 0.1375 0.0000
vt 0.5567 0.1103 0.0000
vt 0.5810 0.1129 0.0000
vt 0.5943 0.1472 0.0000
vt 0.5649 0.0807 0.0000
vt 0.5487 0.0900 0.0000
vt 0.5372 0.0849 0.0000
vt 0.5218 0.0978 0.0000
vt 0.5139 0.0879 0.0000
vt 0.5154 0.0641 0.0000
vt 0.4956 0.0575 0.0000
vt 0.4968 0.0834 0.0000
vt 0.4744 0.0845 0.0000
vt 0.4689 0.0607 0.0000
vt 0.4511 0.0737 0.0000
vt 0.4562 0.0957 0.0000
vt 0.4341 0.0989 0.0000
vt 0.4396 0.1035 0.0000
vt 0.4759 0.0316 0.0000
vt 0.4909 0.0335 0.0000
vt 0.5082 0.0429 0.0000
vt 0.4953 0.0152 0.0000
vt 0.5202 0.0288 0.0000
vt 0.4732 0.0130 0.0000
vt 0.4630 0.0368 0.0000
vt 0.4539 0.0203 0.0000
vt 0.4490 0.0511 0.0000
vt 0.4338 0.0403 0.0000
vt 0.4254 0.0605 0.0000
vt 0.4401 0.0730 0.0000
vt 0.4182 0.0920 0.0000
vt 0.4156 0.0971 0.0000
vt 0.4080 0.0873 0.0000
vt 0.4134 0.0853 0.0000
vt 0.4327 0.0921 0.0000
vt 0.5243 0.0626 0.0000
vt 0.5372 0.0778 0.0000
vt 0.5349 0.0460 0.0000
vt 0.5554 0.0783 0.0000
vt 0.5515 0.0751 0.0000
vt 0.5539 0.0662 0.0000
vt 0.5599 0.0661 0.0000
vt 0.5341 0.0384 0.0000
vt 0.4228 0.0536 0.0000
vt 0.5090 0.2476 0.0000
vt 0.5250 0.2253 0.0000
vt 0.5689 0.2325 0.0000
vt 0.5755 0.2611 0.0000
vt 0.5672 0.3136 0.0000
vt 0.5006 0.2991 0.0000
vt 0.5614 0.3650 0.0000
vt 0.4908 0.3540 0.0000
vt 0.4709 0.4418 0.0000
vt 0.5527 0.4514 0.0000
vt 0.5311 0.4800 0.0000
vt 0.4838 0.4750 0.0000
vt 0.5725 0.3811 0.0000
vt 0.4755 0.3700 0.0000
vt 0.5632 0.4323 0.0000
vt 0.4668 0.4201 0.0000
vt 0.5056 0.4847 0.0000
vt 0.5492 0.2202 0.0000
# 83 texture coords

g FootRight001
usemtl _GeminiMaterial__47
s 1088
f 1/1/1 2/2/2 3/3/3 
s 1089
f 3/3/3 4/4/4 1/1/1 
s 1090
f 5/5/5 6/6/6 7/7/7 
s 1091
f 7/7/7 8/8/8 5/5/5 
s 1092
f 3/3/3 9/9/9 5/10/5 
s 1093
f 5/10/5 4/4/4 3/3/3 
s 1094
f 10/11/10 11/12/11 7/7/7 
s 1095
f 7/7/7 6/6/6 10/11/10 
s 1096
f 6/6/6 9/13/9 12/14/12 
s 1097
f 13/15/13 6/6/6 12/14/12 
s 1098
f 13/15/13 14/16/14 15/17/15 
s 1099
f 15/17/15 16/18/16 13/15/13 
s 1100
f 13/15/13 10/11/10 6/6/6 
s 1106
f 17/19/17 1/1/1 18/20/18 
s 1107
f 18/20/18 19/21/19 17/19/17 
s 1108
f 19/21/19 20/22/20 17/19/17 
s 1109
f 20/22/20 21/23/21 17/19/17 
s 1110
f 1/1/1 17/19/17 2/2/2 
s 1111
f 17/19/17 22/24/22 23/25/23 
s 1112
f 17/19/17 21/23/21 22/24/22 
s 1113
f 24/26/24 22/24/22 21/23/21 
s 1114
f 21/23/21 25/27/25 24/26/24 
s 1115
f 26/28/26 25/27/25 27/29/27 
s 1116
f 27/29/27 28/30/28 26/28/26 
s 1117
f 26/28/26 28/30/28 29/31/29 
s 1118
f 28/30/28 30/32/30 29/31/29 
s 1119
f 30/32/30 31/33/31 32/34/32 
s 1120
f 32/34/32 33/35/33 30/32/30 
s 1121
f 34/36/34 33/35/33 32/34/32 
s 1122
f 32/34/32 35/37/35 34/36/34 
s 1123
f 36/38/36 34/36/34 35/37/35 
s 1124
f 35/37/35 37/39/37 36/38/36 
s 1125
f 14/16/14 36/38/36 37/39/37 
s 1126
f 37/39/37 15/17/15 14/16/14 
s 1127
f 16/18/16 10/11/10 13/15/13 
s 1128
f 30/32/30 38/40/38 39/41/39 
s 1129
f 30/32/30 39/41/39 40/42/40 
s 1130
f 40/42/40 29/31/29 30/32/30 
s 1131
f 41/43/41 42/44/42 40/42/40 
s 1132
f 40/42/40 39/41/39 41/43/41 
s 1133
f 38/40/38 43/45/43 41/43/41 
s 1134
f 41/43/41 39/41/39 38/40/38 
s 1135
f 44/46/44 45/47/45 43/45/43 
s 1136
f 43/45/43 38/40/38 44/46/44 
s 1137
f 33/35/33 44/46/44 38/40/38 
s 1138
f 38/40/38 30/32/30 33/35/33 
s 1139
f 46/48/46 44/46/44 33/35/33 
s 1140
f 33/35/33 34/36/34 46/48/46 
s 1141
f 45/47/45 44/46/44 46/48/46 
s 1142
f 46/48/46 47/49/47 45/47/45 
s 1143
f 48/50/48 46/48/46 49/51/49 
s 1144
f 50/52/50 51/53/51 52/54/52 
s 1145
f 52/54/52 53/55/53 50/52/50 
s 1146
f 50/52/50 54/56/54 36/38/36 
s 1147
f 36/38/36 51/53/51 50/52/50 
s 1148
f 54/56/54 49/51/49 34/36/34 
s 1149
f 34/36/34 36/38/36 54/56/54 
s 1150
f 26/28/26 29/31/29 55/57/55 
s 1151
f 55/57/55 56/58/56 26/28/26 
s 1152
f 57/59/57 55/57/55 40/42/40 
s 1153
f 40/42/40 42/44/42 57/59/57 
s 1154
f 58/60/58 59/61/59 60/62/60 
s 1155
f 60/62/60 61/63/61 58/60/58 
s 1156
f 26/28/26 56/58/56 59/61/59 
s 1157
f 59/61/59 58/60/58 26/28/26 
s 1158
f 57/59/57 62/64/62 61/63/61 
s 1159
f 61/63/61 60/62/60 57/59/57 
s 1160
f 63/65/63 48/50/48 53/55/53 
s 1161
f 53/55/53 52/54/52 63/65/63 
s 1162
f 62/64/62 57/59/57 42/44/42 
s 1163
f 48/50/48 63/65/63 47/49/47 
s 1164
f 51/53/51 36/38/36 14/16/14 
s 1165
f 26/28/26 58/60/58 25/27/25 
s 1166
f 58/60/58 24/26/24 25/27/25 
s 1167
f 12/66/12 9/67/9 2/68/2 
s 1168
f 2/68/2 23/69/23 12/66/12 
s 1169
f 23/69/23 22/70/22 13/71/13 
s 1170
f 13/71/13 12/66/12 23/69/23 
s 1171
f 22/70/22 24/72/24 14/73/14 
s 1172
f 14/73/14 13/71/13 22/70/22 
s 1173
f 47/74/47 42/75/42 41/76/41 
s 1174
f 41/76/41 45/77/45 47/74/47 
s 1175
f 61/78/61 52/79/52 14/73/14 
s 1176
f 14/73/14 24/72/24 61/78/61 
s 1177
f 62/80/62 63/81/63 52/79/52 
s 1178
f 52/79/52 61/78/61 62/80/62 
s 1179
f 42/75/42 47/74/47 63/81/63 
s 1180
f 63/81/63 62/80/62 42/75/42 
s 1181
f 41/76/41 43/82/43 45/77/45 
s 1182
f 52/54/52 51/53/51 14/16/14 
s 1183
f 24/26/24 58/60/58 61/63/61 
s 1196
f 53/55/53 48/50/48 49/51/49 
s 1197
f 49/51/49 54/56/54 53/55/53 
s 1198
f 60/62/60 56/58/56 55/57/55 
s 1199
f 55/57/55 57/59/57 60/62/60 
s 1210
f 46/48/46 34/36/34 49/51/49 
s 1211
f 48/50/48 47/49/47 46/48/46 
s 1212
f 55/57/55 29/31/29 40/42/40 
s 1213
f 54/56/54 50/52/50 53/55/53 
s 1214
f 60/62/60 59/61/59 56/58/56 
s 1215
f 17/19/17 23/25/23 2/2/2 
s 1216
f 6/6/6 5/5/5 9/13/9 
s 1239
f 30/32/30 28/30/28 31/33/31 
s 1242
f 2/68/2 9/67/9 3/83/3 
s 256
f 5/10/64 8/8/65 18/20/66 1/1/67 
f 4/4/68 5/10/64 1/1/67 
f 11/12/69 10/11/70 37/39/71 
f 27/29/72 21/23/73 20/22/74 
f 8/8/65 7/7/75 11/12/69 19/21/76 
f 35/37/77 32/34/78 31/33/79 11/12/69 
f 31/33/79 28/30/80 27/29/72 19/21/76 
f 27/29/72 20/22/74 19/21/76 
f 11/12/69 31/33/79 19/21/76 
f 8/8/65 19/21/76 18/20/66 
f 11/12/69 37/39/71 35/37/77 
f 27/29/72 25/27/81 21/23/73 
f 16/18/82 15/17/83 37/39/71 
f 10/11/70 16/18/82 37/39/71 
# 4 polygons - 114 triangles

