# 3ds Max Wavefront OBJ Exporter v0.97b - (c)2007 guruware
# File Created: 27.01.2014 18:20:06

mtllib handright.mtl

#
# object handright001
#

v  -0.0524 0.1025 -0.2764
v  -0.1352 0.1110 -0.2003
v  -0.1307 0.1600 -0.2172
v  -0.0456 0.1510 -0.2916
v  -0.1200 0.4248 -0.1828
v  -0.1110 0.3995 -0.3316
v  -0.1662 0.1809 -0.1023
v  -0.1758 0.1313 -0.0921
v  -0.1623 0.1521 0.0262
v  -0.1549 0.1983 -0.0037
v  -0.0659 0.2423 0.1034
v  -0.0366 0.4586 -0.0521
v  0.1071 0.2626 0.1096
v  0.1104 0.4806 -0.0380
v  0.1966 0.2276 0.0166
v  0.2130 0.4581 -0.1214
v  0.1780 0.1769 -0.1580
v  0.1995 0.4203 -0.2775
v  0.1673 0.1172 -0.1406
v  0.1059 0.1014 -0.2865
v  0.1172 0.1600 -0.2995
v  0.0192 0.0969 -0.3057
v  0.0299 0.1555 -0.2950
v  -0.0654 -0.0563 -0.2826
v  -0.1324 -0.0501 -0.1885
v  -0.2040 -0.0316 -0.0544
v  -0.1764 -0.0051 0.0882
v  -0.0659 0.0439 0.2223
v  -0.0721 0.1983 0.1287
v  0.0378 0.0676 0.2634
v  0.0958 0.2073 0.1333
v  0.1324 0.0648 0.2082
v  0.1702 0.0270 0.0611
v  0.1876 0.1702 0.0380
v  0.1668 -0.0513 -0.0972
v  0.1048 -0.0603 -0.2972
v  0.0180 -0.0580 -0.3141
v  -0.0693 -0.2102 -0.2955
v  -0.1296 -0.2180 -0.1749
v  -0.2130 -0.2434 -0.0076
v  -0.1904 -0.2242 0.1671
v  -0.0986 -0.1245 0.2645
v  0.1206 -0.1786 0.1220
v  0.1352 -0.1978 -0.0747
v  0.0879 -0.2197 -0.2983
v  0.1499 -0.1578 0.2302
v  0.0992 -0.2355 0.2245
v  -0.0755 -0.1949 0.3417
v  -0.0513 -0.1375 0.3823
v  -0.1059 -0.2017 0.2876
v  -0.0158 -0.3020 0.2735
v  -0.0192 -0.2581 0.2628
v  0.0293 -0.3071 0.2121
v  0.0496 -0.2592 0.2341
v  -0.0535 -0.3995 -0.2809
v  -0.1200 -0.4293 -0.1558
v  0.0811 -0.4051 -0.2921
v  0.1228 -0.4113 -0.2048
v  0.0862 -0.3178 0.0273
v  0.0620 -0.4688 -0.0645
v  0.0259 -0.4496 0.0837
v  0.0316 -0.4665 0.0138
v  -0.0017 -0.4231 0.2014
v  0.0006 -0.4519 0.1558
v  -0.0383 -0.3916 0.2752
v  -0.1307 -0.3950 0.2730
v  -0.1859 -0.3831 0.2465
v  -0.2113 -0.4040 0.1806
v  -0.2023 -0.4451 0.0059
v  0.0372 -0.1042 0.3981
v  0.1302 -0.1138 0.3457
v  -0.0699 -0.4671 -0.1530
v  -0.1037 -0.4710 0.1682
v  -0.1268 -0.4806 0.0070
v  0.0924 -0.4553 -0.1276
v  0.0389 -0.1668 0.2904
v  0.0101 0.3910 -0.3981
v  0.1178 0.3961 -0.3969
v  0.0299 0.1578 -0.2961
# 79 vertices

vn -0.5439 -0.0591 -0.8371
vn -0.8590 -0.0409 -0.5103
vn -0.8578 -0.0940 -0.5053
vn -0.4188 -0.2226 -0.8804
vn -0.9680 0.2315 0.0970
vn -0.8121 -0.1521 -0.5633
vn -0.9815 0.1469 -0.1228
vn -0.9787 0.1255 -0.1625
vn -0.9013 0.2821 0.3288
vn -0.9012 0.3320 0.2785
vn -0.4551 0.5195 0.7232
vn -0.5145 0.5448 0.6622
vn 0.3722 0.4164 0.8295
vn 0.3207 0.5008 0.8040
vn 0.9411 0.0718 0.3305
vn 0.9543 0.0971 0.2826
vn 0.9583 -0.2038 -0.2002
vn 0.9373 -0.1845 -0.2957
vn 0.9658 -0.1526 -0.2095
vn 0.6212 -0.0924 -0.7782
vn 0.5460 -0.3267 -0.7715
vn -0.0521 0.0701 -0.9962
vn 0.0043 -0.1758 -0.9844
vn -0.5977 0.0576 -0.7996
vn -0.8660 -0.0219 -0.4995
vn -0.9848 0.0597 -0.1634
vn -0.9089 0.2009 0.3653
vn -0.6056 0.4618 0.6481
vn -0.4714 0.4638 0.7501
vn -0.0212 0.6558 0.7546
vn 0.3492 0.4617 0.8154
vn 0.7680 0.3575 0.5314
vn 0.9921 -0.0902 0.0872
vn 0.9614 0.0200 0.2746
vn 0.9823 -0.1384 -0.1264
vn 0.6852 -0.0324 -0.7276
vn -0.0714 0.0259 -0.9971
vn -0.5442 -0.0662 -0.8363
vn -0.8866 -0.0721 -0.4570
vn -0.9844 0.0011 -0.1758
vn -0.9172 0.1643 0.3631
vn -0.8561 0.2483 0.4532
vn 0.9266 -0.3759 0.0102
vn 0.9847 -0.1741 -0.0074
vn 0.6029 -0.0612 -0.7955
vn 0.8888 -0.4028 0.2185
vn 0.5999 -0.7630 0.2407
vn -0.4180 -0.4276 0.8015
vn -0.3922 -0.1497 0.9076
vn -0.7728 -0.0273 0.6340
vn 0.4740 -0.1320 0.8706
vn 0.6105 -0.0773 0.7882
vn 0.8258 -0.3820 0.4149
vn 0.6322 -0.5308 0.5644
vn -0.4433 -0.4551 -0.7722
vn -0.7589 -0.4562 -0.4647
vn 0.4158 -0.5192 -0.7467
vn 0.8262 -0.5297 -0.1922
vn 0.9249 -0.2989 0.2348
vn 0.5720 -0.8124 0.1128
vn 0.6461 -0.7256 0.2368
vn 0.3028 -0.9335 0.1918
vn 0.6276 -0.5900 0.5080
vn 0.5347 -0.7901 0.2997
vn 0.3442 -0.4801 0.8068
vn -0.2796 -0.4266 0.8602
vn -0.6684 -0.1792 0.7219
vn -0.8648 -0.4274 0.2637
vn -0.8127 -0.5643 -0.1450
vn 0.1316 -0.0611 0.9894
vn 0.7019 -0.2339 0.6727
vn -0.2117 -0.9239 -0.3187
vn -0.1140 -0.9412 0.3180
vn -0.2140 -0.9768 -0.0056
vn 0.7809 -0.6194 0.0810
vn 0.3540 -0.6708 0.6517
vn -0.1885 -0.3548 -0.9157
vn 0.4562 -0.3483 -0.8189
vn -0.2902 -0.4118 -0.8638
# 79 vertex normals

vt 0.2712 0.7233 0.0000
vt 0.2849 0.7220 0.0000
vt 0.2846 0.7280 0.0000
vt 0.2708 0.7295 0.0000
vt 0.3022 0.7562 0.0000
vt 0.2839 0.7579 0.0000
vt 0.2993 0.7266 0.0000
vt 0.2990 0.7210 0.0000
vt 0.3133 0.7199 0.0000
vt 0.3114 0.7256 0.0000
vt 0.3285 0.7286 0.0000
vt 0.3216 0.7575 0.0000
vt 0.3476 0.7366 0.0000
vt 0.3377 0.7645 0.0000
vt 0.3636 0.7447 0.0000
vt 0.3516 0.7719 0.0000
vt 0.2310 0.7348 0.0000
vt 0.2392 0.7642 0.0000
vt 0.2207 0.7677 0.0000
vt 0.2098 0.7399 0.0000
vt 0.2291 0.7289 0.0000
vt 0.2496 0.7267 0.0000
vt 0.2510 0.7330 0.0000
vt 0.2605 0.7250 0.0000
vt 0.2615 0.7309 0.0000
vt 0.2689 0.7045 0.0000
vt 0.2824 0.7034 0.0000
vt 0.2992 0.7019 0.0000
vt 0.3166 0.7008 0.0000
vt 0.3361 0.7018 0.0000
vt 0.3300 0.7228 0.0000
vt 0.3544 0.7089 0.0000
vt 0.3500 0.7303 0.0000
vt 0.3647 0.7165 0.0000
vt 0.3765 0.7222 0.0000
vt 0.3659 0.7398 0.0000
vt 0.1966 0.7169 0.0000
vt 0.2240 0.7076 0.0000
vt 0.2075 0.7347 0.0000
vt 0.2492 0.7056 0.0000
vt 0.2588 0.7052 0.0000
vt 0.2668 0.6865 0.0000
vt 0.2799 0.6840 0.0000
vt 0.2991 0.6772 0.0000
vt 0.3193 0.6744 0.0000
vt 0.3354 0.6804 0.0000
vt 0.1966 0.6916 0.0000
vt 0.2220 0.6896 0.0000
vt 0.2490 0.6859 0.0000
vt 0.1885 0.7007 0.0000
vt 0.1871 0.6929 0.0000
vt 0.3486 0.6752 0.0000
vt 0.3553 0.6854 0.0000
vt 0.3402 0.6701 0.0000
vt 0.3479 0.6588 0.0000
vt 0.3536 0.6661 0.0000
vt 0.1760 0.6736 0.0000
vt 0.1867 0.6777 0.0000
vt 0.1838 0.6841 0.0000
vt 0.1737 0.6822 0.0000
vt 0.2655 0.6763 0.0000
vt 0.2800 0.6677 0.0000
vt 0.2496 0.6728 0.0000
vt 0.2386 0.6716 0.0000
vt 0.2098 0.6731 0.0000
vt 0.2226 0.6608 0.0000
vt 0.2070 0.6575 0.0000
vt 0.2148 0.6511 0.0000
vt 0.1903 0.6613 0.0000
vt 0.1970 0.6524 0.0000
vt 0.1781 0.6596 0.0000
vt 0.3285 0.6499 0.0000
vt 0.3382 0.6433 0.0000
vt 0.3261 0.6524 0.0000
vt 0.3139 0.6546 0.0000
vt 0.2968 0.6598 0.0000
vt 0.3638 0.6941 0.0000
vt 0.3743 0.7010 0.0000
vt 0.3878 0.7079 0.0000
vt 0.2737 0.6581 0.0000
vt 0.3115 0.6431 0.0000
vt 0.2934 0.6488 0.0000
vt 0.2527 0.6595 0.0000
vt 0.2648 0.6511 0.0000
vt 0.2718 0.6398 0.0000
vt 0.2873 0.6376 0.0000
vt 0.2975 0.6282 0.0000
vt 0.3128 0.6316 0.0000
vt 0.3278 0.6283 0.0000
vt 0.2330 0.6601 0.0000
vt 0.8079 0.7632 0.0000
vt 0.7942 0.7566 0.0000
vt 0.8090 0.7495 0.0000
vt 0.8229 0.7619 0.0000
vt 0.8265 0.7507 0.0000
vt 0.8193 0.7431 0.0000
vt 0.7916 0.7446 0.0000
vt 0.7993 0.7391 0.0000
vt 0.8095 0.7367 0.0000
vt 0.2677 0.7597 0.0000
vt 0.2559 0.7618 0.0000
vt 0.2616 0.7313 0.0000
# 102 texture coords

g handright001
usemtl _GeminiMaterial__47
s 3311
f 1/1/1 2/2/2 3/3/3 
s 3312
f 3/3/3 4/4/4 1/1/1 
s 3313
f 5/5/5 6/6/6 3/3/3 
s 3314
f 3/3/3 7/7/7 5/5/5 
s 3315
f 7/7/7 8/8/8 9/9/9 
s 3316
f 9/9/9 10/10/10 7/7/7 
s 3317
f 10/10/10 11/11/11 12/12/12 
s 3318
f 12/12/12 5/5/5 10/10/10 
s 3319
f 13/13/13 14/14/14 12/12/12 
s 3320
f 12/12/12 11/11/11 13/13/13 
s 3321
f 15/15/15 16/16/16 14/14/14 
s 3322
f 14/14/14 13/13/13 15/15/15 
s 3323
f 17/17/17 18/18/18 16/19/16 
s 3324
f 16/19/16 15/20/15 17/17/17 
s 3325
f 17/17/17 19/21/19 20/22/20 
s 3326
f 20/22/20 21/23/21 17/17/17 
s 3327
f 20/22/20 22/24/22 23/25/23 
s 3328
f 23/25/23 21/23/21 20/22/20 
s 3329
f 24/26/24 25/27/25 2/2/2 
s 3330
f 2/2/2 1/1/1 24/26/24 
s 3331
f 25/27/25 26/28/26 8/8/8 
s 3332
f 8/8/8 2/2/2 25/27/25 
s 3333
f 26/28/26 27/29/27 9/9/9 
s 3334
f 9/9/9 8/8/8 26/28/26 
s 3335
f 27/29/27 28/30/28 29/31/29 
s 3336
f 29/31/29 9/9/9 27/29/27 
s 3337
f 28/30/28 30/32/30 31/33/31 
s 3338
f 31/33/31 29/31/29 28/30/28 
s 3339
f 31/33/31 30/32/30 32/34/32 
s 3340
f 32/34/32 33/35/33 34/36/34 
s 3341
f 34/36/34 31/33/31 32/34/32 
s 3342
f 33/37/33 35/38/35 19/21/19 
s 3343
f 19/21/19 34/39/34 33/37/33 
s 3344
f 35/38/35 36/40/36 20/22/20 
s 3345
f 20/22/20 19/21/19 35/38/35 
s 3346
f 37/41/37 24/26/24 1/1/1 
s 3347
f 1/1/1 22/24/22 37/41/37 
s 3348
f 38/42/38 39/43/39 25/27/25 
s 3349
f 25/27/25 24/26/24 38/42/38 
s 3350
f 39/43/39 40/44/40 26/28/26 
s 3351
f 26/28/26 25/27/25 39/43/39 
s 3352
f 40/44/40 41/45/41 27/29/27 
s 3353
f 27/29/27 26/28/26 40/44/40 
s 3354
f 41/45/41 42/46/42 28/30/28 
s 3355
f 28/30/28 27/29/27 41/45/41 
s 3356
f 43/47/43 44/48/44 35/38/35 
s 3357
f 35/38/35 33/37/33 43/47/43 
s 3358
f 44/48/44 45/49/45 36/40/36 
s 3359
f 36/40/36 35/38/35 44/48/44 
s 3360
f 24/26/24 37/41/37 38/42/38 
s 3361
f 46/50/46 47/51/47 43/47/43 
s 3362
f 48/52/48 49/53/49 42/46/42 
s 3363
f 42/46/42 50/54/50 48/52/48 
s 3364
f 48/52/48 50/54/50 51/55/51 
s 3365
f 51/55/51 52/56/52 48/52/48 
s 3366
f 51/57/51 53/58/53 54/59/54 
s 3367
f 54/59/54 52/60/52 51/57/51 
s 3368
f 43/47/43 47/51/47 54/59/54 
s 3369
f 54/59/54 53/58/53 43/47/43 
s 3370
f 42/46/42 41/45/41 50/54/50 
s 3371
f 39/43/39 38/42/38 55/61/55 
s 3372
f 55/61/55 56/62/56 39/43/39 
s 3373
f 55/61/55 38/42/38 45/49/45 
s 3374
f 45/49/45 57/63/57 55/61/55 
s 3375
f 58/64/58 57/63/57 45/49/45 
s 3376
f 45/49/45 44/48/44 58/64/58 
s 3377
f 59/65/59 58/64/58 44/48/44 
s 3378
f 60/66/60 59/65/59 61/67/61 
s 3379
f 61/67/61 62/68/62 60/66/60 
s 3380
f 61/67/61 59/65/59 63/69/63 
s 3381
f 63/69/63 64/70/64 61/67/61 
s 3382
f 63/69/63 53/58/53 51/57/51 
s 3383
f 51/57/51 65/71/65 63/69/63 
s 3384
f 63/69/63 59/65/59 53/58/53 
s 3385
f 43/47/43 59/65/59 44/48/44 
s 3386
f 51/55/51 50/54/50 66/72/66 
s 3387
f 66/72/66 65/73/65 51/55/51 
s 3388
f 66/72/66 50/54/50 41/45/41 
s 3389
f 41/45/41 67/74/67 66/72/66 
s 3390
f 67/74/67 41/45/41 68/75/68 
s 3391
f 40/44/40 69/76/69 68/75/68 
s 3392
f 68/75/68 41/45/41 40/44/40 
s 3393
f 39/43/39 56/62/56 69/76/69 
s 3394
f 69/76/69 40/44/40 39/43/39 
s 3395
f 70/77/70 30/32/30 28/30/28 
s 3396
f 28/30/28 49/53/49 70/77/70 
s 3397
f 32/34/32 30/32/30 70/77/70 
s 3398
f 70/77/70 71/78/71 32/34/32 
s 3399
f 33/35/33 32/34/32 71/78/71 
s 3400
f 71/78/71 46/79/46 33/35/33 
s 3401
f 33/37/33 46/50/46 43/47/43 
s 3402
f 42/46/42 49/53/49 28/30/28 
s 3403
f 56/62/56 55/61/55 72/80/72 
s 3404
f 73/81/73 66/72/66 67/74/67 
s 3405
f 67/74/67 68/75/68 73/81/73 
s 3406
f 74/82/74 73/81/73 68/75/68 
s 3407
f 68/75/68 69/76/69 74/82/74 
s 3408
f 72/80/72 74/82/74 69/76/69 
s 3409
f 69/76/69 56/62/56 72/80/72 
s 3410
f 57/63/57 58/83/58 72/80/72 
s 3411
f 75/84/75 60/85/60 72/80/72 
s 3412
f 62/86/62 61/87/61 74/82/74 
s 3413
f 64/88/64 63/89/63 73/81/73 
s 3414
f 58/83/58 75/84/75 72/80/72 
s 3415
f 60/85/60 62/86/62 74/82/74 
s 3416
f 60/85/60 74/82/74 72/80/72 
s 3417
f 61/87/61 64/88/64 73/81/73 
s 3418
f 61/87/61 73/81/73 74/82/74 
s 3419
f 63/89/63 65/73/65 66/72/66 
s 3420
f 63/89/63 66/72/66 73/81/73 
s 3421
f 58/64/58 59/65/59 60/66/60 
s 3422
f 60/66/60 75/90/75 58/64/58 
s 3423
f 57/63/57 72/80/72 55/61/55 
s 3426
f 70/91/70 49/92/49 76/93/76 
s 3427
f 71/94/71 70/91/70 76/93/76 
s 3428
f 46/95/46 71/94/71 76/93/76 
s 3429
f 47/96/47 46/95/46 76/93/76 
s 3430
f 49/92/49 48/97/48 76/93/76 
s 3431
f 48/97/48 52/98/52 76/93/76 
s 3432
f 52/98/52 54/99/54 76/93/76 
s 3433
f 54/99/54 47/96/47 76/93/76 
s 3438
f 4/4/4 3/3/3 6/6/6 
s 3439
f 6/6/6 77/100/77 4/4/4 
s 3440
f 7/7/7 3/3/3 2/2/2 
s 3441
f 2/2/2 8/8/8 7/7/7 
s 3442
f 10/10/10 5/5/5 7/7/7 
s 3443
f 11/11/11 10/10/10 9/9/9 
s 3444
f 9/9/9 29/31/29 11/11/11 
s 3445
f 31/33/31 13/13/13 11/11/11 
s 3446
f 11/11/11 29/31/29 31/33/31 
s 3447
f 34/36/34 15/15/15 13/13/13 
s 3448
f 13/13/13 31/33/31 34/36/34 
s 3449
f 19/21/19 17/17/17 15/20/15 
s 3450
f 15/20/15 34/39/34 19/21/19 
s 3451
f 18/18/18 17/17/17 21/23/21 
s 3452
f 21/23/21 78/101/78 18/18/18 
s 3453
f 79/102/79 77/100/77 78/101/78 
s 3454
f 79/102/79 78/101/78 21/23/21 
s 3455
f 79/102/79 21/23/21 23/25/23 
s 3462
f 36/40/36 37/41/37 22/24/22 
s 3463
f 22/24/22 20/22/20 36/40/36 
s 3464
f 37/41/37 36/40/36 45/49/45 
s 3465
f 37/41/37 45/49/45 38/42/38 
s 3466
f 4/4/4 23/25/23 22/24/22 
s 3467
f 22/24/22 1/1/1 4/4/4 
s 3468
f 77/100/77 79/102/79 23/25/23 
s 3469
f 23/25/23 4/4/4 77/100/77 
s 3943
f 59/65/59 43/47/43 53/58/53 
# 0 polygons - 148 triangles

