# 3ds Max Wavefront OBJ Exporter v0.97b - (c)2007 guruware
# File Created: 27.01.2014 18:20:18

mtllib handarmorleft.mtl

#
# object hand_armor_left001
#

v  0.0611 0.1783 -0.2226
v  0.0983 0.1862 -0.1487
v  0.1056 0.1304 -0.1127
v  0.0679 0.0904 -0.2102
v  -0.0110 0.0775 -0.2783
v  -0.0194 0.1761 -0.2902
v  -0.0076 -0.1535 -0.2485
v  0.0132 -0.2459 -0.2124
v  0.1130 -0.1107 -0.1042
v  0.0932 -0.2944 -0.0823
v  0.0825 0.1733 0.0473
v  0.0769 -0.0628 0.1544
v  0.1045 -0.2927 0.0699
v  0.0594 -0.2617 0.2028
v  -0.0758 -0.1361 0.2834
v  -0.0307 -0.2059 0.2902
v  -0.0549 0.1271 0.1831
v  0.0775 0.2375 0.0389
v  0.0138 0.2690 0.1059
v  -0.0966 0.2944 0.1335
v  -0.1073 0.1400 0.1921
v  0.0769 0.1276 -0.1110
v  0.0735 0.1862 -0.1442
v  0.0408 0.1795 -0.2068
v  0.0882 -0.1096 -0.0975
v  -0.0239 -0.1535 -0.2293
v  -0.0059 -0.2414 -0.1916
v  0.0668 -0.2921 -0.0761
v  0.0549 -0.0668 0.1414
v  0.0527 0.1727 0.0389
v  0.0775 -0.2933 0.0648
v  0.0352 -0.2634 0.1899
v  -0.0454 -0.2138 0.2665
v  -0.0842 -0.1423 0.2569
v  -0.0651 0.1169 0.1578
v  -0.0008 0.2640 0.0851
v  0.0566 0.2364 0.0355
v  -0.1130 0.1282 0.1668
v  -0.1062 0.2831 0.1110
v  -0.0279 0.0797 -0.2592
v  -0.0341 0.1789 -0.2693
# 41 vertices

vn 0.5996 0.6241 -0.5010
vn 0.7401 0.6595 0.1315
vn 0.8802 0.4736 0.0321
vn 0.8162 -0.0413 -0.5763
vn -0.0569 -0.1216 -0.9910
vn -0.1287 0.4848 -0.8651
vn -0.0263 -0.2591 -0.9655
vn 0.0746 -0.6537 -0.7530
vn 0.9643 -0.0520 -0.2596
vn 0.5891 -0.7541 -0.2902
vn 0.9088 0.4046 0.1021
vn 0.8382 0.1536 0.5233
vn 0.7098 -0.6820 0.1763
vn 0.5412 -0.5793 0.6095
vn -0.3794 0.0860 0.9212
vn 0.1750 -0.2268 0.9581
vn 0.1141 0.0491 0.9923
vn 0.7960 0.4688 -0.3829
vn 0.5063 0.7612 0.4053
vn -0.3174 0.8557 0.4086
vn -0.4929 -0.2028 0.8461
vn -0.7787 0.5129 0.3614
vn -0.3783 0.7678 0.5171
vn -0.4832 0.8273 0.2865
vn -0.9566 0.0214 0.2906
vn -0.9888 -0.1384 -0.0550
vn -0.8779 -0.4740 0.0674
vn -0.6972 -0.7149 0.0536
vn -0.8343 -0.1589 -0.5279
vn -0.5782 0.1945 -0.7924
vn -0.6378 -0.7702 -0.0091
vn -0.5962 -0.7984 -0.0845
vn -0.6804 -0.7220 0.1257
vn -0.9568 -0.2132 -0.1975
vn -0.7378 -0.4648 -0.4896
vn -0.2491 0.6130 -0.7498
vn -0.1813 0.3952 -0.9005
vn -0.7386 -0.6438 -0.2000
vn -0.7071 0.4162 -0.5717
vn -0.9994 0.0003 -0.0340
vn -0.8063 0.5899 0.0444
# 41 vertex normals

vt 0.8648 0.7613 0.0000
vt 0.8744 0.7615 0.0000
vt 0.8796 0.7549 0.0000
vt 0.8660 0.7506 0.0000
vt 0.8530 0.7495 0.0000
vt 0.8524 0.7614 0.0000
vt 0.8542 0.7208 0.0000
vt 0.8590 0.7096 0.0000
vt 0.8773 0.7249 0.0000
vt 0.8768 0.7022 0.0000
vt 0.9014 0.7572 0.0000
vt 0.9093 0.7263 0.0000
vt 0.8951 0.6996 0.0000
vt 0.9123 0.7013 0.0000
vt 0.9326 0.7150 0.0000
vt 0.9278 0.7066 0.0000
vt 0.9257 0.7496 0.0000
vt 0.9028 0.7651 0.0000
vt 0.9134 0.7679 0.0000
vt 0.9264 0.7720 0.0000
vt 0.9314 0.7533 0.0000
vt 0.4988 0.1595 0.0000
vt 0.5001 0.1652 0.0000
vt 0.5062 0.1662 0.0000
vt 0.5023 0.1394 0.0000
vt 0.5175 0.1389 0.0000
vt 0.5155 0.1306 0.0000
vt 0.5047 0.1239 0.0000
vt 0.4818 0.1382 0.0000
vt 0.4850 0.1602 0.0000
vt 0.4927 0.1207 0.0000
vt 0.4807 0.1209 0.0000
vt 0.4705 0.1235 0.0000
vt 0.4674 0.1298 0.0000
vt 0.4712 0.1536 0.0000
vt 0.4780 0.1672 0.0000
vt 0.4847 0.1657 0.0000
vt 0.4670 0.1546 0.0000
vt 0.4686 0.1687 0.0000
vt 0.5149 0.1589 0.0000
vt 0.8748 0.7639 0.0000
vt 0.8811 0.7580 0.0000
vt 0.8647 0.7645 0.0000
vt 0.8490 0.7641 0.0000
vt 0.8498 0.7495 0.0000
vt 0.8515 0.7196 0.0000
vt 0.8757 0.6993 0.0000
vt 0.8573 0.7073 0.0000
vt 0.8990 0.7597 0.0000
vt 0.9131 0.6982 0.0000
vt 0.8948 0.6965 0.0000
vt 0.9292 0.7042 0.0000
vt 0.9356 0.7144 0.0000
vt 0.9022 0.7668 0.0000
vt 0.9128 0.7709 0.0000
vt 0.9276 0.7738 0.0000
vt 0.9340 0.7526 0.0000
vt 0.9291 0.7484 0.0000
vt 0.5145 0.1674 0.0000
# 59 texture coords

g hand_armor_left001
usemtl _GeminiMaterial__47
s 4912
f 1/1/1 2/2/2 3/3/3 
s 4913
f 3/3/3 4/4/4 1/1/1 
s 4914
f 1/1/1 4/4/4 5/5/5 
s 4915
f 5/5/5 6/6/6 1/1/1 
s 4916
f 7/7/7 5/5/5 4/4/4 
s 4917
f 8/8/8 7/7/7 9/9/9 
s 4918
f 9/9/9 10/10/10 8/8/8 
s 4919
f 11/11/11 12/12/12 9/9/9 
s 4920
f 9/9/9 3/3/3 11/11/11 
s 4921
f 13/13/13 12/12/12 14/14/14 
s 4922
f 15/15/15 16/16/16 14/14/14 
s 4923
f 14/14/14 12/12/12 15/15/15 
s 4924
f 11/11/11 17/17/17 12/12/12 
s 4925
f 11/11/11 18/18/18 19/19/19 
s 4926
f 19/19/19 17/17/17 11/11/11 
s 4927
f 20/20/20 21/21/21 17/17/17 
s 4928
f 17/17/17 19/19/19 20/20/20 
s 4929
f 9/9/9 4/4/4 3/3/3 
s 4930
f 7/7/7 4/4/4 9/9/9 
s 4931
f 12/12/12 17/17/17 15/15/15 
s 4932
f 12/12/12 13/13/13 9/9/9 
s 4933
f 9/9/9 13/13/13 10/10/10 
s 4934
f 22/22/22 23/23/23 24/24/24 
s 4935
f 25/25/25 26/26/26 27/27/27 
s 4936
f 27/27/27 28/28/28 25/25/25 
s 4937
f 25/25/25 29/29/29 30/30/30 
s 4938
f 30/30/30 22/22/22 25/25/25 
s 4939
f 29/29/29 31/31/31 32/32/32 
s 4940
f 32/32/32 33/33/33 34/34/34 
s 4941
f 34/34/34 29/29/29 32/32/32 
s 4942
f 35/35/35 30/30/30 29/29/29 
s 4943
f 36/36/36 37/37/37 30/30/30 
s 4944
f 30/30/30 35/35/35 36/36/36 
s 4945
f 35/35/35 38/38/38 39/39/39 
s 4946
f 39/39/39 36/36/36 35/35/35 
s 4947
f 26/26/26 25/25/25 22/22/22 
s 4948
f 22/22/22 40/40/40 26/26/26 
s 4949
f 35/35/35 29/29/29 34/34/34 
s 4950
f 31/31/31 29/29/29 25/25/25 
s 4951
f 31/31/31 25/25/25 28/28/28 
s 4952
f 2/2/2 23/41/23 22/42/22 
s 4953
f 22/42/22 3/3/3 2/2/2 
s 4954
f 1/1/1 24/43/24 23/41/23 
s 4955
f 23/41/23 2/2/2 1/1/1 
s 4956
f 6/6/6 41/44/41 24/43/24 
s 4957
f 24/43/24 1/1/1 6/6/6 
s 4958
f 5/5/5 40/45/40 41/44/41 
s 4959
f 41/44/41 6/6/6 5/5/5 
s 4960
f 7/7/7 26/46/26 40/45/40 
s 4961
f 40/45/40 5/5/5 7/7/7 
s 4962
f 10/10/10 28/47/28 27/48/27 
s 4963
f 27/48/27 8/8/8 10/10/10 
s 4964
f 8/8/8 27/48/27 26/46/26 
s 4965
f 26/46/26 7/7/7 8/8/8 
s 4966
f 3/3/3 22/42/22 30/49/30 
s 4967
f 30/49/30 11/11/11 3/3/3 
s 4968
f 14/14/14 32/50/32 31/51/31 
s 4969
f 31/51/31 13/13/13 14/14/14 
s 4970
f 16/16/16 33/52/33 32/50/32 
s 4971
f 32/50/32 14/14/14 16/16/16 
s 4972
f 15/15/15 34/53/34 33/52/33 
s 4973
f 33/52/33 16/16/16 15/15/15 
s 4974
f 18/18/18 37/54/37 36/55/36 
s 4975
f 36/55/36 19/19/19 18/18/18 
s 4976
f 11/11/11 30/49/30 37/54/37 
s 4977
f 37/54/37 18/18/18 11/11/11 
s 4978
f 19/19/19 36/55/36 39/56/39 
s 4979
f 39/56/39 20/20/20 19/19/19 
s 4980
f 21/21/21 38/57/38 35/58/35 
s 4981
f 35/58/35 17/17/17 21/21/21 
s 4982
f 20/20/20 39/56/39 38/57/38 
s 4983
f 38/57/38 21/21/21 20/20/20 
s 4984
f 17/17/17 35/58/35 34/53/34 
s 4985
f 34/53/34 15/15/15 17/17/17 
s 4986
f 13/13/13 31/51/31 28/47/28 
s 4987
f 28/47/28 10/10/10 13/13/13 
s 4988
f 40/40/40 24/24/24 41/59/41 
s 4989
f 22/22/22 24/24/24 40/40/40 
# 0 polygons - 78 triangles

