# 3ds Max Wavefront OBJ Exporter v0.97b - (c)2007 guruware
# File Created: 27.01.2014 18:17:32

mtllib kneepadright.mtl

#
# object KneepadRIGHT001
#

v  -0.1960 -0.0250 0.2940
v  0.1134 -0.0436 0.3560
v  0.1483 0.3671 0.4495
v  -0.1717 0.3880 0.4123
v  -0.3221 0.0739 0.0427
v  -0.3085 0.0069 0.0606
v  -0.2106 -0.3462 0.1639
v  0.1010 -0.3856 0.1977
v  -0.2838 -0.1309 0.0990
v  -0.2832 -0.3079 0.0431
v  0.3239 -0.6017 -0.2791
v  0.3583 -0.3113 -0.1751
v  0.1412 -0.6766 -0.0274
v  0.1815 -0.3584 0.0702
v  -0.2247 -0.6944 0.0157
v  0.0970 -0.7299 0.0332
v  -0.3927 -0.5378 -0.2511
v  -0.3820 -0.2470 -0.1486
v  -0.4019 -0.2951 -0.3832
v  -0.4011 -0.4936 -0.3552
v  -0.3937 -0.2169 -0.4004
v  -0.2847 -0.4253 0.0069
v  -0.2805 -0.6457 -0.0641
v  0.1194 -0.8180 -0.0794
v  0.1519 -0.8342 -0.1440
v  0.1590 -0.8915 -0.1891
v  -0.2838 -0.9671 -0.1753
v  0.0835 -1.0094 -0.1224
v  -0.3859 -0.6504 -0.2989
v  -0.3992 -0.5524 -0.3312
v  -0.2809 -0.7448 -0.1182
v  -0.3119 -0.7727 -0.1922
v  -0.3379 -0.8910 -0.2757
v  -0.3813 -0.1459 -0.2780
v  -0.3685 -0.0923 -0.1868
v  -0.3449 0.0251 -0.0438
v  -0.3497 0.0218 -0.1011
v  -0.3451 0.1126 -0.0280
v  -0.2732 0.3806 0.2010
v  -0.1797 0.7300 0.3372
v  -0.1143 0.7538 0.4210
v  0.1025 0.8586 0.4228
v  0.0237 0.7233 0.4136
v  0.0909 0.7363 0.4214
v  0.1950 0.8217 0.4336
v  0.1868 0.7364 0.4326
v  0.2487 0.5220 0.3364
v  0.2742 0.6794 0.3263
v  0.2942 0.5917 0.2930
v  0.2354 0.7887 0.3836
v  0.3450 0.3130 0.1521
v  0.2722 0.3360 0.2564
v  0.2906 0.1444 0.1668
v  0.3579 0.2149 0.1015
v  0.2917 0.0461 0.1033
v  0.3402 -0.0621 -0.0413
v  0.2496 -0.0398 0.1178
v  0.2080 -0.1325 0.1372
v  0.1900 -0.2713 0.0940
v  0.3654 -0.1640 -0.1238
v  0.3838 -0.2517 -0.2672
v  0.3952 -0.2338 -0.3440
v  0.3360 -0.5457 -0.3177
v  -0.1105 0.7605 0.3998
v  -0.1267 0.8550 0.3988
v  -0.1834 0.8178 0.2866
v  -0.1759 0.7368 0.3161
v  -0.2102 0.7756 0.2375
v  -0.3062 0.3847 0.1033
v  -0.2694 0.3873 0.1798
v  -0.3183 0.0806 0.0216
v  -0.3047 0.0137 0.0394
v  -0.2800 -0.1242 0.0778
v  -0.2794 -0.3011 0.0220
v  -0.2809 -0.4185 -0.0143
v  -0.2767 -0.6389 -0.0853
v  -0.3548 -0.7437 -0.2901
v  -0.3448 -0.7988 -0.3007
v  -0.3081 -0.7659 -0.2133
v  -0.2771 -0.7381 -0.1394
v  -0.3341 -0.8842 -0.2969
v  0.0803 0.9884 0.4214
v  -0.0194 0.9925 0.4110
v  -0.0559 0.8696 0.4063
v  0.0199 0.7166 0.4348
v  0.0871 0.7296 0.4426
v  0.1831 0.7296 0.4537
v  0.2449 0.5152 0.3575
v  0.2684 0.3292 0.2776
v  0.2868 0.1377 0.1879
v  0.2458 -0.0466 0.1389
v  0.2879 0.0394 0.1244
v  0.2042 -0.1392 0.1583
v  0.1862 -0.2781 0.1152
v  0.1777 -0.3652 0.0913
v  0.1374 -0.6833 -0.0063
v  0.1156 -0.8247 -0.0582
v  0.1481 -0.8410 -0.1228
v  0.1552 -0.8983 -0.1680
v  0.1456 -0.9717 -0.1872
v  0.1996 -0.8344 -0.2175
v  0.1494 -0.9649 -0.2083
v  0.2063 -0.9303 -0.2678
v  -0.3952 -0.2782 -0.4366
v  -0.3944 -0.4768 -0.4085
v  -0.3925 -0.5355 -0.3845
v  -0.3792 -0.6335 -0.3522
v  -0.3481 -0.7269 -0.3435
v  -0.3380 -0.7820 -0.3540
v  -0.3274 -0.8674 -0.3502
v  -0.2733 -0.9435 -0.2498
v  -0.2801 -0.9603 -0.1965
v  0.0940 -0.9858 -0.1969
v  0.0873 -1.0026 -0.1435
v  0.1561 -0.9481 -0.2617
v  0.2130 -0.9135 -0.3212
v  0.2063 -0.8176 -0.2708
v  0.3306 -0.5848 -0.3325
v  0.3427 -0.5289 -0.3710
v  0.4019 -0.2170 -0.3973
v  0.3905 -0.2348 -0.3206
v  0.3721 -0.1472 -0.1772
v  0.3469 -0.0453 -0.0946
v  0.3647 0.2317 0.0482
v  0.3517 0.3298 0.0987
v  0.3009 0.6086 0.2397
v  0.2809 0.6963 0.2730
v  0.2422 0.8055 0.3303
v  0.2018 0.8386 0.3802
v  0.1093 0.8754 0.3695
v  0.0870 1.0052 0.3681
v  -0.0127 1.0094 0.3577
v  -0.0492 0.8864 0.3530
v  -0.1200 0.8719 0.3455
v  -0.1766 0.8347 0.2332
v  -0.2035 0.7924 0.1842
v  -0.2994 0.4015 0.0500
v  -0.3384 0.1295 -0.0814
v  -0.3429 0.0387 -0.1545
v  -0.3618 -0.0755 -0.2401
v  -0.3746 -0.1291 -0.3313
v  -0.3870 -0.2001 -0.4537
# 142 vertices

vn -0.5994 -0.2147 0.7712
vn 0.3453 -0.3233 0.8811
vn 0.3575 -0.1579 0.9205
vn -0.5700 -0.0734 0.8184
vn -0.9014 -0.0711 0.4271
vn -0.9023 -0.0593 0.4270
vn -0.5665 -0.2988 0.7680
vn 0.3910 -0.3880 0.8346
vn -0.8824 -0.1103 0.4574
vn -0.8675 -0.1446 0.4760
vn 0.8775 -0.2623 0.4016
vn 0.9138 -0.2049 0.3506
vn 0.8115 -0.2916 0.5064
vn 0.8080 -0.2457 0.5355
vn -0.5226 -0.3828 0.7618
vn 0.4064 -0.4437 0.7987
vn -0.9506 -0.1160 0.2880
vn -0.9615 -0.0231 0.2739
vn -0.9955 0.0615 0.0719
vn -0.9966 0.0058 0.0824
vn -0.9929 0.1039 0.0586
vn -0.8576 -0.1639 0.4874
vn -0.8564 -0.2064 0.4732
vn 0.8173 -0.3057 0.4885
vn 0.8101 -0.3054 0.5004
vn 0.7808 -0.2692 0.5638
vn -0.6269 -0.3324 0.7046
vn 0.3523 -0.4484 0.8215
vn -0.8993 -0.2157 0.3804
vn -0.9951 -0.0444 0.0888
vn -0.8973 -0.1247 0.4235
vn -0.9048 -0.0946 0.4153
vn -0.9940 0.0885 0.0638
vn -0.9914 0.1057 0.0773
vn -0.9621 -0.0169 0.2723
vn -0.9942 0.0725 0.0795
vn -0.9202 -0.0722 0.3848
vn -0.9007 -0.0277 0.4335
vn -0.8306 0.1009 0.5476
vn -0.4623 0.0517 0.8852
vn -0.1088 -0.0044 0.9941
vn -0.1076 -0.0050 0.9942
vn -0.1154 -0.0004 0.9933
vn 0.2415 -0.0344 0.9698
vn 0.4615 -0.0545 0.8855
vn 0.7783 -0.1254 0.6152
vn 0.7486 -0.0794 0.6582
vn 0.7668 -0.1069 0.6330
vn 0.7857 -0.1867 0.5897
vn 0.7906 -0.1679 0.5889
vn 0.7996 -0.2656 0.5386
vn 0.7946 -0.2473 0.5545
vn 0.8068 -0.3110 0.5024
vn 0.8132 -0.2648 0.5183
vn 0.8157 -0.2834 0.5044
vn 0.8218 -0.2636 0.5051
vn 0.8134 -0.2392 0.5303
vn 0.8630 -0.2026 0.4627
vn 0.9639 -0.2428 0.1092
vn 0.9748 -0.1876 0.1206
vn 0.9822 -0.1829 0.0426
vn -0.4935 -0.0243 0.8694
vn -0.5123 -0.0789 0.8552
vn -0.8689 0.0394 0.4934
vn -0.8621 0.1013 0.4965
vn -0.9000 0.0734 0.4297
vn -0.9008 -0.0259 0.4335
vn -0.9015 0.0210 0.4322
vn -0.8989 -0.0773 0.4313
vn -0.9023 -0.0518 0.4280
vn -0.8923 -0.0784 0.4446
vn -0.8637 -0.1473 0.4819
vn -0.8568 -0.2120 0.4700
vn -0.8582 -0.2435 0.4518
vn -0.8895 -0.1526 0.4307
vn -0.8672 -0.2198 0.4467
vn -0.1040 -0.0072 0.9945
vn -0.1113 -0.0029 0.9938
vn 0.1270 -0.0236 0.9916
vn 0.7664 -0.1064 0.6334
vn 0.7860 -0.1857 0.5897
vn 0.7956 -0.2493 0.5521
vn 0.8142 -0.2936 0.5009
vn 0.8090 -0.3123 0.4980
vn 0.8184 -0.2523 0.5163
vn 0.8084 -0.2452 0.5351
vn 0.8148 -0.2778 0.5088
vn 0.7160 -0.3368 0.6114
vn 0.8105 -0.3096 0.4973
vn 0.7929 -0.2923 0.5346
vn 0.7682 -0.2547 0.5874
vn -0.9909 -0.0230 -0.1323
vn -0.9837 -0.0937 -0.1537
vn -0.9646 -0.1910 -0.1820
vn -0.9194 -0.3267 -0.2192
vn -0.9747 -0.1460 -0.1691
vn -0.9779 -0.1292 -0.1642
vn -0.5257 -0.7899 -0.3158
vn -0.0648 -0.9492 -0.3080
vn 0.2945 -0.9213 -0.2538
vn 0.9920 0.0030 0.1261
vn 0.8769 -0.4790 -0.0406
vn 0.9840 -0.1624 0.0729
vn 0.9813 -0.1807 0.0668
vn 0.9443 0.2602 0.2013
vn 0.9921 0.0019 0.1258
vn 0.9807 0.1133 0.1595
vn 0.9898 -0.1099 0.0902
vn 0.9881 0.0570 0.1427
vn 0.9827 0.1004 0.1557
vn 0.9726 0.1561 0.1720
vn 0.9521 0.2358 0.1946
vn 0.7884 0.5510 0.2735
vn 0.3181 0.8918 0.3218
vn 0.9701 0.1680 0.1755
vn 0.0078 0.9533 0.3021
vn -0.9578 0.2858 -0.0306
vn -0.2213 0.9376 0.2682
vn -0.7103 0.6920 0.1289
vn -0.8669 0.4962 0.0473
vn -0.9668 0.2519 -0.0425
vn -0.9823 0.1740 -0.0690
vn -0.9890 0.1196 -0.0870
vn -0.9770 0.2052 -0.0585
vn -0.9585 0.2832 -0.0315
vn -0.9683 0.2457 -0.0446
vn -0.9917 0.0824 -0.0991
vn -0.9342 -0.2557 -0.2489
vn -0.9406 -0.2363 -0.2439
vn -0.9858 0.0476 -0.1613
vn -0.9857 0.0610 -0.1570
vn -0.9856 0.0346 -0.1654
vn -0.9851 0.0848 -0.1493
vn -0.7562 0.6504 0.0723
vn -0.9588 0.2709 -0.0852
vn -0.4900 -0.8012 -0.3436
vn -0.0637 -0.9473 -0.3139
vn 0.3101 -0.9203 -0.2384
vn 0.9791 -0.1613 0.1238
vn 0.9850 -0.0132 0.1722
vn 0.8296 0.4715 0.2991
vn 0.9748 -0.1922 0.1132
vn 0.9791 -0.1618 0.1237
vn 0.9821 -0.1325 0.1336
vn 0.9786 -0.1652 0.1225
vn 0.9143 -0.4035 0.0349
vn 0.8992 -0.4370 0.0215
vn 0.9851 -0.0850 0.1493
vn 0.9837 0.0107 0.1795
vn 0.9810 0.0425 0.1892
vn 0.9581 0.1743 0.2272
vn -0.0354 0.9538 0.2982
vn -0.2126 0.9412 0.2625
vn 0.2201 0.9171 0.3323
vn -0.5237 0.8342 0.1726
vn -0.9548 0.2866 -0.0795
vn -0.9718 0.2099 -0.1070
# 157 vertex normals

vt 0.8352 0.3901 0.0000
vt 0.8662 0.3860 0.0000
vt 0.8761 0.4261 0.0000
vt 0.8456 0.4310 0.0000
vt 0.8063 0.3983 0.0000
vt 0.8087 0.3919 0.0000
vt 0.8277 0.3563 0.0000
vt 0.8593 0.3493 0.0000
vt 0.8152 0.3774 0.0000
vt 0.8129 0.3589 0.0000
vt 0.8921 0.3029 0.0000
vt 0.9028 0.3364 0.0000
vt 0.8595 0.3108 0.0000
vt 0.8725 0.3454 0.0000
vt 0.8190 0.3164 0.0000
vt 0.8518 0.3088 0.0000
vt 0.7855 0.3285 0.0000
vt 0.7920 0.3626 0.0000
vt 0.7680 0.3549 0.0000
vt 0.7739 0.3326 0.0000
vt 0.7651 0.3636 0.0000
vt 0.8109 0.3452 0.0000
vt 0.8081 0.3203 0.0000
vt 0.8536 0.2944 0.0000
vt 0.8590 0.2885 0.0000
vt 0.8593 0.2800 0.0000
vt 0.8036 0.2797 0.0000
vt 0.8454 0.2717 0.0000
vt 0.7828 0.3148 0.0000
vt 0.7773 0.3263 0.0000
vt 0.8043 0.3081 0.0000
vt 0.7962 0.3035 0.0000
vt 0.7895 0.2875 0.0000
vt 0.7768 0.3731 0.0000
vt 0.7844 0.3796 0.0000
vt 0.7993 0.3925 0.0000
vt 0.7932 0.3919 0.0000
vt 0.8007 0.4016 0.0000
vt 0.8226 0.4303 0.0000
vt 0.8435 0.4651 0.0000
vt 0.8551 0.4678 0.0000
vt 0.8777 0.4753 0.0000
vt 0.8684 0.4624 0.0000
vt 0.8750 0.4631 0.0000
vt 0.8862 0.4708 0.0000
vt 0.8842 0.4623 0.0000
vt 0.8919 0.4384 0.0000
vt 0.8970 0.4538 0.0000
vt 0.8993 0.4443 0.0000
vt 0.8920 0.4662 0.0000
vt 0.9067 0.4105 0.0000
vt 0.8951 0.4164 0.0000
vt 0.8961 0.3960 0.0000
vt 0.9078 0.3998 0.0000
vt 0.8970 0.3833 0.0000
vt 0.9059 0.3661 0.0000
vt 0.8900 0.3755 0.0000
vt 0.8812 0.3685 0.0000
vt 0.8761 0.3546 0.0000
vt 0.9077 0.3526 0.0000
vt 0.9153 0.3370 0.0000
vt 0.9233 0.3340 0.0000
vt 0.8992 0.3058 0.0000
vt 0.8546 0.4769 0.0000
vt 0.8418 0.4732 0.0000
vt 0.8357 0.4690 0.0000
vt 0.8142 0.4300 0.0000
vt 0.7864 0.3045 0.0000
vt 0.7867 0.2980 0.0000
vt 0.8769 0.4885 0.0000
vt 0.8669 0.4898 0.0000
vt 0.8619 0.4777 0.0000
vt 0.8560 0.2722 0.0000
vt 0.8672 0.2839 0.0000
vt 0.8658 0.2726 0.0000
# 75 texture coords

g KneepadRIGHT001
usemtl _GeminiMaterial__47
s 858
f 1/1/1 2/2/2 3/3/3 
s 859
f 3/3/3 4/4/4 1/1/1 
s 862
f 1/1/1 4/4/4 5/5/5 6/6/6 
s 877
f 7/7/7 8/8/8 2/2/2 
s 878
f 2/2/2 1/1/1 7/7/7 
s 880
f 7/7/7 1/1/1 9/9/9 10/10/10 
s 881
f 1/1/1 6/6/6 9/9/9 
s 886
f 11/11/11 12/12/12 13/13/13 
s 887
f 12/12/12 14/14/14 13/13/13 
s 888
f 15/15/15 16/16/16 8/8/8 
s 889
f 8/8/8 7/7/7 15/15/15 
s 890
f 17/17/17 18/18/18 19/19/19 20/20/20 
s 891
f 18/18/18 21/21/21 19/19/19 
s 892
f 15/15/15 7/7/7 22/22/22 23/23/23 
s 893
f 7/7/7 10/10/10 22/22/22 
s 911
f 13/13/13 24/24/24 25/25/25 11/11/11 
f 11/11/11 25/25/25 26/26/26 
s 912
f 27/27/27 28/28/28 16/16/16 
s 913
f 16/16/16 15/15/15 27/27/27 
s 914
f 29/29/29 17/17/17 30/30/30 
s 915
f 17/17/17 20/20/20 30/30/30 
s 916
f 27/27/27 15/15/15 31/31/31 32/32/32 
f 33/33/32 27/27/27 32/32/32 
s 917
f 15/15/15 23/23/23 31/31/31 
s 909
f 21/21/21 18/18/18 34/34/33 
s 879
f 35/35/34 34/34/33 18/18/18 36/36/35 
f 35/35/34 36/36/35 37/37/36 
s 860
f 37/37/36 36/36/35 38/38/37 
s 863
f 5/5/5 4/4/4 39/39/38 
s 838
f 40/40/39 39/39/38 4/4/4 41/41/40 
s 833
f 42/42/41 43/43/42 44/44/43 45/45/44 
f 44/44/43 46/46/45 45/45/44 
s 832
f 45/45/44 46/46/45 47/47/46 48/48/47 
f 47/47/46 49/49/48 48/48/47 
f 50/50/47 45/45/44 48/48/47 
s 831
f 51/51/49 49/49/48 47/47/46 52/52/50 
s 857
f 51/51/49 52/52/50 53/53/51 54/54/52 
s 856
f 54/54/52 53/53/51 55/55/53 56/56/54 
f 55/55/53 57/57/55 56/56/54 
s 876
f 58/58/56 59/59/57 56/56/54 57/57/55 
s 875
f 59/59/57 14/14/14 12/12/12 56/56/54 
f 56/56/54 12/12/12 60/60/58 
s 882
f 60/60/58 12/12/12 61/61/59 
s 885
f 61/61/59 12/12/12 62/62/60 
s 896
f 62/62/60 12/12/12 11/11/11 63/63/61 
s 838
f 64/41/62 65/64/63 66/65/64 67/40/65 
f 67/40/65 66/65/64 68/66/66 69/67/67 
f 67/40/65 69/67/67 70/39/68 
s 863
f 38/38/37 36/36/35 71/5/69 69/67/67 
f 70/39/68 69/67/67 71/5/69 
s 862
f 71/5/69 36/36/35 72/6/70 
s 881
f 72/6/70 36/36/35 18/18/18 73/9/71 
s 880
f 73/9/71 18/18/18 74/10/10 
s 893
f 74/10/10 18/18/18 17/17/17 75/22/72 
s 892
f 75/22/72 17/17/17 76/23/73 
s 917
f 76/23/73 17/17/17 29/29/29 77/68/74 
f 77/68/74 78/69/75 79/32/76 76/23/73 
f 76/23/73 79/32/76 80/31/74 
s 916
f 79/32/76 78/69/75 81/33/32 
s 834
f 82/70/77 83/71/77 84/72/77 64/41/62 
f 84/72/77 65/64/63 64/41/62 
f 42/42/41 82/70/77 64/41/62 43/43/42 
f 41/41/40 4/4/4 85/43/78 
s 833
f 86/44/43 85/43/78 4/4/4 3/3/3 
f 86/44/43 3/3/3 87/46/79 
s 832
f 87/46/79 3/3/3 88/47/80 
s 831
f 88/47/80 3/3/3 89/52/81 
s 857
f 3/3/3 2/2/2 90/53/82 89/52/81 
s 856
f 2/2/2 91/57/83 92/55/84 90/53/82 
s 876
f 93/58/56 91/57/83 2/2/2 8/8/8 
f 93/58/56 8/8/8 94/59/85 
s 875
f 94/59/85 8/8/8 95/14/86 
s 887
f 95/14/86 8/8/8 16/16/16 96/13/87 
s 911
f 96/13/87 16/16/16 28/28/28 97/24/88 
f 98/25/89 97/24/88 28/28/28 99/26/90 
s 910
f 99/26/90 28/28/28 100/73/91 
f 101/74/91 11/11/11 26/26/26 102/73/91 
f 101/74/91 102/73/91 103/75/91 
s off
f 104/19/92 105/20/92 20/20/92 19/19/92 
f 105/20/93 106/30/93 30/30/93 20/20/93 
f 106/30/94 107/29/94 29/29/94 30/30/94 
f 107/29/95 108/68/95 77/68/95 29/29/95 
f 108/68/96 109/69/96 78/69/96 77/68/96 
f 109/69/97 110/33/97 81/33/97 78/69/97 
f 110/33/98 111/27/98 112/27/98 81/33/98 
f 111/27/99 113/28/99 114/28/99 112/27/99 
f 113/28/100 115/73/100 102/73/100 114/28/100 
f 115/73/100 116/75/100 103/75/100 102/73/100 
f 116/75/101 117/74/101 101/74/101 103/75/101 
f 117/74/102 118/11/102 11/11/102 101/74/102 
f 118/11/103 119/63/103 63/63/103 11/11/103 
f 119/63/104 120/62/104 62/62/104 63/63/104 
f 120/62/105 121/61/105 61/61/105 62/62/105 
f 121/61/106 122/60/106 60/60/106 61/61/106 
f 122/60/107 123/56/107 56/56/107 60/60/107 
f 123/56/108 124/54/108 54/54/108 56/56/108 
f 124/54/109 125/51/109 51/51/109 54/54/109 
f 125/51/110 126/49/110 49/49/110 51/51/110 
f 126/49/111 127/48/111 48/48/111 49/49/111 
f 127/48/112 128/50/112 50/50/112 48/48/112 
f 128/50/113 129/45/113 45/45/113 50/50/113 
f 129/45/114 130/42/114 42/42/114 45/45/114 
f 130/42/115 131/70/115 82/70/115 42/42/115 
f 131/70/116 132/71/116 83/71/116 82/70/116 
f 132/71/117 133/72/117 84/72/117 83/71/117 
f 133/72/118 134/64/118 65/64/118 84/72/118 
f 134/64/119 135/65/119 66/65/119 65/64/119 
f 135/65/120 136/66/120 68/66/120 66/65/120 
f 136/66/121 137/67/121 69/67/121 68/66/121 
f 137/67/122 138/38/122 38/38/122 69/67/122 
f 138/38/123 139/37/123 37/37/123 38/38/123 
f 139/37/124 140/35/124 35/35/124 37/37/124 
f 140/35/125 141/34/125 34/34/125 35/35/125 
f 141/34/126 142/21/126 21/21/126 34/34/126 
f 142/21/127 104/19/127 19/19/127 21/21/127 
f 71/5/128 72/6/128 6/6/128 5/5/128 
f 72/6/129 73/9/129 9/9/129 6/6/129 
f 73/9/130 74/10/130 10/10/130 9/9/130 
f 74/10/131 75/22/131 22/22/131 10/10/131 
f 75/22/132 76/23/132 23/23/132 22/22/132 
f 76/23/133 80/31/133 31/31/133 23/23/133 
f 80/31/134 79/32/134 32/32/134 31/31/134 
f 79/32/135 81/33/135 33/33/135 32/32/135 
f 81/33/136 112/27/136 27/27/136 33/33/136 
f 112/27/137 114/28/137 28/28/137 27/27/137 
f 114/28/138 102/73/138 100/73/138 28/28/138 
f 102/73/139 26/26/139 99/26/139 100/73/139 
f 26/26/140 25/25/140 98/25/140 99/26/140 
f 25/25/141 24/24/141 97/24/141 98/25/141 
f 24/24/142 13/13/142 96/13/142 97/24/142 
f 13/13/143 14/14/143 95/14/143 96/13/143 
f 14/14/144 59/59/144 94/59/144 95/14/144 
f 59/59/145 58/58/145 93/58/145 94/59/145 
f 58/58/146 57/57/146 91/57/146 93/58/146 
f 57/57/147 55/55/147 92/55/147 91/57/147 
f 55/55/148 53/53/148 90/53/148 92/55/148 
f 53/53/149 52/52/149 89/52/149 90/53/149 
f 52/52/150 47/47/150 88/47/150 89/52/150 
f 47/47/151 46/46/151 87/46/151 88/47/151 
f 46/46/152 44/44/152 86/44/152 87/46/152 
f 44/44/153 43/43/153 85/43/153 86/44/153 
f 43/43/154 64/41/154 41/41/154 85/43/154 
f 64/41/155 67/40/155 40/40/155 41/41/155 
f 67/40/156 70/39/156 39/39/156 40/40/156 
f 70/39/157 71/5/157 5/5/157 39/39/157 
# 100 polygons - 45 triangles

