# 3ds Max Wavefront OBJ Exporter v0.97b - (c)2007 guruware
# File Created: 27.01.2014 18:20:42

mtllib thumbleft.mtl

#
# object ThumbLeft
#

v  0.0265 0.0642 0.0882
v  -0.0051 0.0006 0.1287
v  0.0879 -0.0068 0.0369
v  0.0569 -0.0755 0.0803
v  0.0169 -0.1544 0.1310
v  -0.0377 -0.0924 0.1828
v  0.0293 -0.0935 -0.0003
v  0.0045 -0.1640 0.0747
v  -0.0783 0.0254 0.0983
v  -0.0930 -0.0755 0.1575
v  -0.0687 0.0716 0.0673
v  -0.0592 0.1403 0.0042
v  0.0434 0.1290 0.0223
v  0.0569 -0.0451 -0.0499
v  -0.0141 -0.0885 -0.0223
v  -0.0586 -0.1589 0.0651
v  -0.0039 -0.0445 -0.0763
v  -0.0975 -0.0062 0.0493
v  -0.1178 -0.0975 0.1237
v  -0.0952 0.0400 0.0037
v  -0.0648 -0.0051 -0.0510
v  0.0034 -0.0017 -0.1203
v  -0.0552 0.0361 -0.1045
v  -0.0986 -0.1341 0.0814
v  -0.0721 -0.0558 -0.0025
v  -0.0873 -0.1679 0.1259
v  -0.0924 -0.1499 0.1592
v  -0.0299 -0.1871 0.1518
v  -0.0406 -0.1887 0.1203
v  -0.0665 -0.1510 0.1823
v  0.1133 0.0772 -0.0397
v  0.0473 0.1887 -0.0335
v  0.1178 0.1206 -0.0786
v  -0.0755 0.1842 -0.0504
v  0.0704 0.0107 -0.1000
v  0.0744 0.0400 -0.1518
v  0.0039 0.0400 -0.1828
v  -0.0913 0.0930 -0.0527
v  -0.0935 0.1211 -0.1141
v  -0.0569 0.0744 -0.1513
# 40 vertices

vn 0.3813 0.4810 0.7894
vn 0.2983 0.3947 0.8691
vn 0.9430 -0.1264 0.3077
vn 0.9186 -0.2288 0.3221
vn 0.7815 -0.4676 0.4130
vn 0.1808 0.1663 0.9694
vn 0.5546 -0.7159 -0.4243
vn 0.4834 -0.8074 -0.3383
vn -0.6296 0.5078 0.5880
vn -0.5937 0.3023 0.7457
vn -0.5921 0.5565 0.5829
vn -0.5391 0.6211 0.5689
vn 0.4039 0.6110 0.6808
vn 0.6499 -0.6350 -0.4176
vn -0.1630 -0.7290 -0.6649
vn -0.3338 -0.7524 -0.5679
vn -0.1727 -0.7085 -0.6842
vn -0.9939 0.0923 -0.0609
vn -0.9900 -0.0185 0.1396
vn -0.9983 0.0484 -0.0326
vn -0.7824 -0.3926 -0.4834
vn -0.1494 -0.7718 -0.6180
vn -0.7570 -0.4925 -0.4295
vn -0.8120 -0.4257 -0.3993
vn -0.7704 -0.3723 -0.5175
vn -0.6481 -0.7609 0.0311
vn -0.7246 -0.4258 0.5419
vn 0.1843 -0.8470 0.4987
vn -0.0542 -0.9950 -0.0835
vn -0.2523 -0.3410 0.9056
vn 0.9831 -0.0082 0.1830
vn 0.3275 0.6287 0.7053
vn 0.9718 0.0720 0.2246
vn -0.7336 0.3837 0.5608
vn 0.6968 -0.6070 -0.3822
vn 0.6036 -0.7003 -0.3812
vn -0.2306 -0.8001 -0.5538
vn -0.9989 0.0455 -0.0073
vn -0.9705 -0.2402 -0.0189
vn -0.7633 -0.5310 -0.3680
# 40 vertex normals

vt 0.3219 0.1305 0.0000
vt 0.3253 0.1187 0.0000
vt 0.3071 0.1259 0.0000
vt 0.3109 0.1132 0.0000
vt 0.3152 0.1000 0.0000
vt 0.3275 0.1040 0.0000
vt 0.3004 0.1125 0.0000
vt 0.3087 0.0993 0.0000
vt 0.3349 0.1219 0.0000
vt 0.3334 0.1045 0.0000
vt 0.3348 0.1299 0.0000
vt 0.3363 0.1433 0.0000
vt 0.3200 0.1445 0.0000
vt 0.2956 0.1227 0.0000
vt 0.3710 0.1097 0.0000
vt 0.3638 0.0953 0.0000
vt 0.3651 0.1141 0.0000
vt 0.3552 0.0995 0.0000
vt 0.3769 0.1188 0.0000
vt 0.3690 0.1235 0.0000
vt 0.3439 0.1210 0.0000
vt 0.3396 0.1042 0.0000
vt 0.3480 0.1305 0.0000
vt 0.3582 0.1287 0.0000
vt 0.3719 0.1321 0.0000
vt 0.3621 0.1377 0.0000
vt 0.3482 0.1025 0.0000
vt 0.3553 0.1180 0.0000
vt 0.3455 0.0944 0.0000
vt 0.3402 0.0931 0.0000
vt 0.3197 0.0932 0.0000
vt 0.3155 0.0918 0.0000
vt 0.3528 0.0899 0.0000
vt 0.3276 0.0954 0.0000
vt 0.3303 0.0946 0.0000
vt 0.3489 0.0856 0.0000
vt 0.3405 0.0877 0.0000
vt 0.3037 0.1411 0.0000
vt 0.3194 0.1542 0.0000
vt 0.3015 0.1490 0.0000
vt 0.3405 0.1528 0.0000
vt 0.2912 0.1335 0.0000
vt 0.2857 0.1404 0.0000
vt 0.3813 0.1290 0.0000
vt 0.3833 0.1371 0.0000
vt 0.3748 0.1428 0.0000
vt 0.3511 0.1413 0.0000
vt 0.3562 0.1494 0.0000
vt 0.3645 0.1462 0.0000
# 49 texture coords

g ThumbLeft
usemtl _GeminiMaterial__47
s 3706
f 1/1/1 2/2/2 3/3/3 
s 3707
f 4/4/4 3/3/3 2/2/2 
s 3708
f 5/5/5 4/4/4 6/6/6 
s 3709
f 2/2/2 6/6/6 4/4/4 
s 3710
f 7/7/7 4/4/4 8/8/8 
s 3711
f 5/5/5 8/8/8 4/4/4 
s 3712
f 9/9/9 10/10/10 2/2/2 
s 3713
f 6/6/6 2/2/2 10/10/10 
s 3714
f 11/11/11 1/1/1 12/12/12 
s 3715
f 13/13/13 12/12/12 1/1/1 
s 3716
f 3/3/3 4/4/4 14/14/14 
s 3717
f 7/7/7 14/14/14 4/4/4 
s 3718
f 7/15/7 8/16/8 15/17/15 
s 3719
f 16/18/16 15/17/15 8/16/8 
s 3720
f 14/19/14 7/15/7 17/20/17 
s 3721
f 15/17/15 17/20/17 7/15/7 
s 3722
f 18/21/18 19/22/19 9/9/9 
s 3723
f 10/10/10 9/9/9 19/22/19 
s 3724
f 20/23/20 18/21/18 11/11/11 
s 3725
f 9/9/9 11/11/11 18/21/18 
s 3726
f 17/20/17 21/24/21 22/25/22 
s 3727
f 23/26/23 22/25/22 21/24/21 
s 3728
f 16/18/16 24/27/24 15/17/15 
s 3729
f 25/28/25 15/17/15 24/27/24 
s 3730
f 21/24/21 25/28/25 20/23/20 
s 3731
f 18/21/18 20/23/20 25/28/25 
s 3732
f 24/27/24 19/22/19 25/28/25 
s 3733
f 18/21/18 25/28/25 19/22/19 
s 3734
f 24/27/24 26/29/26 19/22/19 
s 3735
f 27/30/27 19/22/19 26/29/26 
s 3736
f 28/31/28 29/32/29 5/5/5 
s 3737
f 8/8/8 5/5/5 29/32/29 
s 3738
f 24/27/24 16/18/16 26/29/26 
s 3739
f 29/33/29 26/29/26 16/18/16 
s 3740
f 28/31/28 5/5/5 30/34/30 
s 3741
f 6/6/6 30/34/30 5/5/5 
s 3742
f 10/10/10 19/22/19 27/30/27 
s 3743
f 16/18/16 8/16/8 29/33/29 
s 3744
f 10/10/10 27/35/27 6/6/6 
s 3745
f 30/34/30 6/6/6 27/35/27 
s 3746
f 29/33/29 27/30/27 26/29/26 
s 3747
f 28/36/28 30/37/30 29/33/29 
s 3748
f 27/30/27 29/33/29 30/37/30 
s 3749
f 13/13/13 31/38/31 32/39/32 
s 3750
f 33/40/33 32/39/32 31/38/31 
s 3751
f 12/12/12 13/13/13 34/41/34 
s 3752
f 32/39/32 34/41/34 13/13/13 
s 3753
f 31/38/31 35/42/35 33/40/33 
s 3754
f 36/43/36 33/40/33 35/42/35 
s 3755
f 35/44/35 22/25/22 36/45/36 
s 3756
f 37/46/37 36/45/36 22/25/22 
s 3757
f 38/47/38 12/12/12 39/48/39 
s 3758
f 34/41/34 39/48/39 12/12/12 
s 3759
f 22/25/22 23/26/23 37/46/37 
s 3760
f 40/49/40 37/46/37 23/26/23 
s 3761
f 23/26/23 38/47/38 40/49/40 
s 3762
f 39/48/39 40/49/40 38/47/38 
s 3795
f 13/13/13 1/1/1 31/38/31 
s 3796
f 3/3/3 31/38/31 1/1/1 
s 3797
f 9/9/9 2/2/2 11/11/11 
s 3798
f 1/1/1 11/11/11 2/2/2 
s 3799
f 31/38/31 3/3/3 35/42/35 
s 3800
f 14/14/14 35/42/35 3/3/3 
s 3801
f 35/44/35 14/19/14 22/25/22 
s 3802
f 17/20/17 22/25/22 14/19/14 
s 3803
f 15/17/15 25/28/25 17/20/17 
s 3804
f 21/24/21 17/20/17 25/28/25 
s 3805
f 23/26/23 21/24/21 38/47/38 
s 3806
f 20/23/20 38/47/38 21/24/21 
s 3863
f 38/47/38 20/23/20 12/12/12 
s 3864
f 11/11/11 12/12/12 20/23/20 
# 0 polygons - 71 triangles

