# 3ds Max Wavefront OBJ Exporter v0.97b - (c)2007 guruware
# File Created: 27.01.2014 18:17:05

mtllib upperarmleft.mtl

#
# object upperarmleft
#

v  -0.3551 0.7285 0.4651
v  -0.4560 0.9798 0.3079
v  -0.5033 0.7533 0.4488
v  -0.2419 0.9680 0.3654
v  -0.4475 0.5415 0.4082
v  -0.5326 0.6018 0.3868
v  -0.4549 0.5877 -0.1068
v  -0.5174 0.3905 0.0944
v  -0.5439 0.4705 0.1169
v  -0.3901 0.4767 -0.0842
v  -0.3067 0.8102 -0.0972
v  -0.5444 0.6863 -0.0623
v  -0.4960 0.8576 -0.0566
v  -0.2374 1.0035 0.0397
v  -0.4582 1.0029 0.0617
v  0.0601 0.8012 0.3378
v  -0.1157 0.5606 0.4899
v  -0.2763 0.4265 0.4482
v  -0.4368 0.3437 0.2826
v  0.0139 0.8452 0.0132
v  -0.1191 0.7398 -0.1456
v  -0.0002 0.6339 -0.1456
v  0.1660 0.6429 0.0037
v  0.1942 0.5527 0.3051
v  -0.0075 0.3493 0.4409
v  -0.1867 0.2812 0.4414
v  0.0815 0.3770 0.5040
v  -0.0723 0.2834 0.5401
v  -0.1951 0.2575 0.5181
v  -0.3472 0.2862 0.4138
v  -0.3444 0.5460 -0.2640
v  -0.4757 0.4727 -0.1817
v  -0.1230 0.6232 -0.2730
v  0.0821 0.6671 -0.1857
v  0.1728 0.0124 0.4533
v  -0.0864 -0.0834 0.4950
v  -0.2853 -0.0529 0.2465
v  -0.3957 0.0028 -0.0324
v  -0.3681 0.1014 -0.2893
v  -0.2171 0.1995 -0.3812
v  -0.0098 0.2665 -0.3868
v  0.2032 0.2851 -0.3096
v  0.2979 0.2367 -0.1023
v  0.2900 0.1352 0.1975
v  0.3052 -0.2992 0.2820
v  0.0094 -0.4220 0.3755
v  -0.1630 -0.3972 0.1175
v  -0.2582 -0.3251 -0.1586
v  -0.2041 -0.2490 -0.3592
v  -0.0858 -0.1780 -0.4274
v  0.1063 -0.1194 -0.4505
v  0.2646 -0.1042 -0.3693
v  0.3880 -0.1442 -0.1654
v  0.3345 -0.5099 0.2454
v  0.0939 -0.6186 0.2826
v  -0.0672 -0.6293 0.0521
v  -0.0864 -0.6136 -0.0132
v  -0.1692 -0.5476 -0.2583
v  -0.1286 -0.4896 -0.4386
v  -0.0002 -0.4293 -0.4978
v  0.1846 -0.3431 -0.5192
v  0.3215 -0.3256 -0.4347
v  0.4483 -0.3482 -0.2178
v  0.4416 -0.3995 -0.0104
v  0.4263 -0.4355 0.0662
v  0.4106 -0.5364 -0.4431
v  0.5013 -0.5448 -0.2814
v  0.2731 -0.5595 -0.5401
v  0.0860 -0.6378 -0.5164
v  -0.0407 -0.6936 -0.4572
v  -0.0841 -0.7510 -0.2966
v  0.4478 -0.5048 0.1113
v  0.3785 -0.6806 0.2555
v  0.4697 -0.5792 0.1107
v  0.1474 -0.7843 0.2735
v  -0.0278 -0.6795 0.0994
v  -0.0098 -0.7465 0.1180
v  -0.1005 -0.6237 -0.0831
v  -0.0971 -0.6755 -0.1530
v  -0.0723 -0.7409 -0.1766
v  -0.0345 -0.8209 -0.1518
v  0.4697 -0.3995 -0.0809
v  0.4771 -0.4428 -0.1451
v  0.5002 -0.5037 -0.1823
v  0.5018 -0.6395 0.0972
v  0.0122 -0.8209 0.0949
v  -0.0086 -0.8919 -0.3434
v  0.1660 -0.8333 -0.4696
v  0.3452 -0.7770 -0.4860
v  0.4652 -0.7184 -0.3986
v  0.5357 -0.6941 -0.2617
v  0.5340 -0.6000 -0.1609
v  -0.5715 0.5527 0.1394
v  0.1881 -0.9888 -0.1457
v  0.1933 -1.0035 -0.2779
v  0.3119 -0.9688 -0.3619
v  0.2106 -0.9639 0.0187
v  0.4303 -0.9266 -0.3733
v  0.5115 -0.8900 -0.3147
v  0.5715 -0.8475 -0.1506
v  0.5555 -0.8642 -0.2234
v  0.4529 -0.8630 0.1255
v  0.5382 -0.8427 0.0203
v  0.2944 -0.9210 0.1363
# 104 vertices

vn -0.0483 0.1655 0.9850
vn -0.0557 0.8611 0.5054
vn -0.1261 0.1521 0.9803
vn 0.1918 0.7770 0.5996
vn -0.4934 -0.3891 0.7779
vn -0.5664 -0.4974 0.6571
vn -0.3715 -0.1970 -0.9073
vn -0.9684 -0.2495 -0.0014
vn -0.9446 -0.3229 -0.0590
vn -0.5819 0.6624 -0.4719
vn -0.0975 0.3426 -0.9344
vn -0.5131 -0.1318 -0.8482
vn -0.1227 0.3718 -0.9202
vn 0.2145 0.9077 -0.3606
vn -0.0355 0.9239 -0.3810
vn 0.6306 0.5881 0.5064
vn 0.1625 0.0695 0.9843
vn -0.3194 -0.2399 0.9167
vn -0.8294 -0.3030 0.4693
vn 0.5964 0.7182 -0.3584
vn 0.1035 0.3111 -0.9447
vn -0.0351 0.9399 -0.3397
vn 0.8338 0.5144 -0.2007
vn 0.8375 0.3139 0.4472
vn -0.1932 0.5942 0.7808
vn -0.2134 0.6373 0.7405
vn 0.1879 0.5374 0.8222
vn -0.1288 0.4317 0.8928
vn -0.4488 0.3700 0.8134
vn -0.6000 0.3169 0.7345
vn -0.4765 0.7172 -0.5085
vn -0.8263 0.4869 -0.2831
vn -0.1327 0.8297 -0.5422
vn 0.3153 0.8791 -0.3574
vn 0.5909 -0.0895 0.8018
vn -0.2896 -0.3295 0.8986
vn -0.8177 -0.3887 0.4246
vn -0.9396 -0.3411 0.0281
vn -0.7974 -0.1427 -0.5863
vn -0.3132 0.1068 -0.9437
vn 0.1010 0.2572 -0.9611
vn 0.6599 0.3240 -0.6779
vn 0.9515 0.2680 -0.1508
vn 0.9522 0.1398 0.2717
vn 0.7453 -0.0083 0.6666
vn -0.2599 -0.4235 0.8678
vn -0.8327 -0.4410 0.3349
vn -0.9266 -0.3706 -0.0636
vn -0.7581 -0.1337 -0.6383
vn -0.3301 0.0888 -0.9398
vn 0.1129 0.2438 -0.9632
vn 0.6714 0.3080 -0.6741
vn 0.9582 0.2584 -0.1227
vn 0.5629 0.0654 0.8239
vn -0.3217 -0.3064 0.8959
vn -0.8362 -0.3925 0.3830
vn -0.8933 -0.4106 0.1828
vn -0.9346 -0.3443 -0.0893
vn -0.7334 -0.1434 -0.6645
vn -0.2968 0.0645 -0.9528
vn 0.1384 0.2409 -0.9606
vn 0.6591 0.3433 -0.6691
vn 0.9150 0.3660 -0.1697
vn 0.8020 0.5589 0.2106
vn 0.8557 0.3078 0.4160
vn 0.7205 0.1935 -0.6659
vn 0.9103 0.2589 -0.3232
vn 0.2450 0.0229 -0.9692
vn -0.2071 -0.1548 -0.9660
vn -0.6222 -0.3199 -0.7145
vn -0.9115 -0.3930 -0.1210
vn 0.6955 0.3983 0.5981
vn 0.4278 0.1415 0.8927
vn 0.7424 0.2302 0.6292
vn -0.3641 -0.1853 0.9127
vn -0.8167 -0.0845 0.5709
vn -0.7551 -0.2427 0.6090
vn -0.9219 -0.3159 0.2245
vn -0.9123 -0.3757 0.1628
vn -0.9120 -0.3913 0.1230
vn -0.8913 -0.4443 0.0908
vn 0.7051 0.6932 0.1493
vn 0.9563 0.2925 0.0029
vn 0.9492 0.3040 -0.0817
vn 0.7320 0.2475 0.6348
vn -0.6927 -0.3926 0.6050
vn -0.7500 -0.5009 -0.4319
vn -0.1850 -0.3469 -0.9195
vn 0.3036 -0.1361 -0.9430
vn 0.7584 0.0672 -0.6483
vn 0.9189 0.1641 -0.3588
vn 0.9582 0.2453 -0.1474
vn -0.9350 -0.3369 -0.1111
vn -0.9669 0.2540 0.0237
vn -0.9616 0.2730 -0.0286
vn -0.9666 0.2522 0.0468
vn -0.9740 0.2229 0.0413
vn -0.9437 0.3195 0.0850
vn -0.9726 0.2274 0.0476
vn -0.9806 0.1956 -0.0149
vn -0.8874 -0.4026 0.2247
vn -0.8965 -0.3755 0.2352
vn -0.9022 -0.3790 0.2057
vn -0.9347 -0.2608 0.2415
vn -0.9043 -0.3872 0.1796
vn -0.9104 -0.3761 0.1725
vn -0.9219 -0.3393 0.1870
vn -0.9344 -0.2832 0.2159
vn -0.8293 -0.5476 0.1109
vn 0.9136 0.3273 0.2413
vn 0.9177 0.3596 0.1692
vn 0.9389 0.3118 0.1458
vn 0.9732 0.2168 0.0764
vn 0.9599 0.2381 0.1479
vn 0.8620 0.3713 0.3452
vn 0.8781 0.3646 0.3099
vn 0.8699 0.3654 0.3315
vn 0.9588 0.2834 -0.0197
vn 0.3298 -0.9386 0.1017
vn 0.3548 -0.9276 0.1170
vn 0.3456 -0.9321 0.1087
vn 0.3441 -0.9337 0.0987
vn 0.3427 -0.9332 0.1079
vn 0.3355 -0.9346 0.1183
vn 0.3381 -0.9350 0.1075
vn 0.1910 -0.9649 0.1802
vn 0.3450 -0.9338 0.0945
vn 0.3355 -0.9376 0.0912
vn 0.3476 -0.9331 0.0919
vn 0.2691 -0.5018 0.8221
vn 0.7911 -0.0967 0.6039
vn 0.9776 0.1366 0.1601
vn 0.9809 0.1168 -0.1553
vn 0.8928 0.0117 -0.4503
vn 0.6352 -0.1971 -0.7468
vn 0.1059 -0.5530 -0.8264
vn -0.2151 -0.7453 -0.6311
vn -0.5615 -0.8117 0.1608
vn -0.5720 -0.8073 0.1453
vn -0.3552 -0.8033 0.4781
# 140 vertex normals

vt 0.2268 0.2638 0.0000
vt 0.1950 0.2875 0.0000
vt 0.2305 0.2763 0.0000
vt 0.1919 0.2696 0.0000
vt 0.2557 0.2524 0.0000
vt 0.2529 0.2679 0.0000
vt 0.0997 0.2553 0.0000
vt 0.0652 0.2386 0.0000
vt 0.0688 0.2532 0.0000
vt 0.0929 0.2382 0.0000
vt 0.1306 0.2626 0.0000
vt 0.1030 0.2733 0.0000
vt 0.1290 0.2849 0.0000
vt 0.1579 0.2702 0.0000
vt 0.1593 0.2911 0.0000
vt 0.1902 0.2401 0.0000
vt 0.2231 0.2339 0.0000
vt 0.2460 0.2322 0.0000
vt 0.2745 0.2258 0.0000
vt 0.1595 0.2413 0.0000
vt 0.1349 0.2413 0.0000
vt 0.1378 0.2242 0.0000
vt 0.1612 0.2176 0.0000
vt 0.1921 0.2135 0.0000
vt 0.2249 0.2103 0.0000
vt 0.2448 0.2136 0.0000
vt 0.2169 0.2025 0.0000
vt 0.2339 0.2017 0.0000
vt 0.2457 0.2050 0.0000
vt 0.2625 0.2145 0.0000
vt 0.1038 0.2211 0.0000
vt 0.0904 0.2239 0.0000
vt 0.1230 0.2181 0.0000
vt 0.1429 0.2156 0.0000
vt 0.2209 0.1637 0.0000
vt 0.2488 0.1663 0.0000
vt 0.2783 0.1724 0.0000
vt 0.0560 0.1853 0.0000
vt 0.0420 0.2378 0.0000
vt 0.0251 0.1868 0.0000
vt 0.0825 0.1816 0.0000
vt 0.1012 0.1801 0.0000
vt 0.1207 0.1769 0.0000
vt 0.1415 0.1721 0.0000
vt 0.1619 0.1687 0.0000
vt 0.1916 0.1656 0.0000
vt 0.2127 0.1230 0.0000
vt 0.2504 0.1266 0.0000
vt 0.2768 0.1298 0.0000
vt 0.0254 0.1368 0.0000
vt 0.0577 0.1396 0.0000
vt 0.0813 0.1382 0.0000
vt 0.0976 0.1373 0.0000
vt 0.1187 0.1336 0.0000
vt 0.1376 0.1302 0.0000
vt 0.1632 0.1255 0.0000
vt 0.2169 0.0991 0.0000
vt 0.2512 0.1018 0.0000
vt 0.2756 0.1030 0.0000
vt 0.0357 0.1046 0.0000
vt 0.0273 0.1032 0.0000
vt 0.0654 0.1101 0.0000
vt 0.0832 0.1093 0.0000
vt 0.0978 0.1080 0.0000
vt 0.1185 0.1081 0.0000
vt 0.1346 0.1056 0.0000
vt 0.1613 0.1018 0.0000
vt 0.1856 0.1001 0.0000
vt 0.1957 0.0995 0.0000
vt 0.1363 0.0813 0.0000
vt 0.1549 0.0780 0.0000
vt 0.1196 0.0839 0.0000
vt 0.0991 0.0839 0.0000
vt 0.0847 0.0852 0.0000
vt 0.0682 0.0840 0.0000
vt 0.2020 0.0920 0.0000
vt 0.2210 0.0778 0.0000
vt 0.2035 0.0828 0.0000
vt 0.2520 0.0809 0.0000
vt 0.2697 0.0985 0.0000
vt 0.2685 0.0919 0.0000
vt 0.0443 0.1021 0.0000
vt 0.0521 0.0948 0.0000
vt 0.0550 0.0856 0.0000
vt 0.0523 0.0749 0.0000
vt 0.1769 0.0965 0.0000
vt 0.1693 0.0914 0.0000
vt 0.1652 0.0833 0.0000
vt 0.2007 0.0745 0.0000
vt 0.2716 0.0852 0.0000
vt 0.0750 0.0658 0.0000
vt 0.0980 0.0630 0.0000
vt 0.1184 0.0626 0.0000
vt 0.1363 0.0633 0.0000
vt 0.1543 0.0628 0.0000
vt 0.1678 0.0716 0.0000
vt 0.0721 0.2668 0.0000
vt 0.0381 0.2640 0.0000
vt 0.0442 0.2768 0.0000
# 99 texture coords

g upperarmleft
usemtl _GeminiMaterial__47
s 2897
f 1/1/1 2/2/2 3/3/3 
s 2898
f 2/2/2 1/1/1 4/4/4 
s 2899
f 5/5/5 3/3/3 6/6/6 
s 2900
f 3/3/3 5/5/5 1/1/1 
s 2901
f 7/7/7 8/8/8 9/9/9 
s 2902
f 8/8/8 7/7/7 10/10/10 
s 2903
f 11/11/11 12/12/12 13/13/13 
s 2904
f 12/12/12 11/11/11 7/7/7 
s 2905
f 13/13/13 14/14/14 11/11/11 
s 2906
f 14/14/14 13/13/13 15/15/15 
s 2907
f 4/4/4 15/15/15 2/2/2 
s 2908
f 15/15/15 4/4/4 14/14/14 
s 2909
f 1/1/1 16/16/16 4/4/4 
s 2910
f 16/16/16 1/1/1 17/17/17 
s 2911
f 5/5/5 17/17/17 1/1/1 
s 2912
f 17/17/17 5/5/5 18/18/18 
s 2913
f 5/5/5 19/19/19 18/18/18 
s 2914
f 4/4/4 20/20/20 14/14/14 
s 2915
f 20/20/20 4/4/4 16/16/16 
s 2916
f 14/14/14 21/21/21 11/11/11 
s 2917
f 21/21/21 14/14/14 20/20/20 
s 2918
f 11/11/11 10/10/10 7/7/7 
s 2919
f 10/10/10 11/11/11 21/21/21 
s 2920
f 20/20/20 22/22/22 21/21/21 
s 2921
f 21/21/21 22/22/22 10/10/10 
s 2922
f 23/23/23 16/16/16 24/24/24 
s 2923
f 16/16/16 23/23/23 20/20/20 
s 2924
f 17/17/17 24/24/24 16/16/16 
s 2925
f 24/24/24 17/17/17 25/25/25 
s 2926
f 18/18/18 25/25/25 17/17/17 
s 2927
f 25/25/25 18/18/18 26/26/26 
s 2928
f 19/19/19 26/26/26 18/18/18 
s 2929
f 23/23/23 22/22/22 20/20/20 
s 2930
f 24/24/24 25/25/25 27/27/27 
s 2931
f 28/28/28 25/25/25 26/26/26 
s 2932
f 25/25/25 28/28/28 27/27/27 
s 2933
f 28/28/28 26/26/26 29/29/29 
s 2934
f 26/26/26 19/19/19 30/30/30 
s 2935
f 26/26/26 30/30/30 29/29/29 
s 2936
f 10/10/10 31/31/31 32/32/32 
s 2937
f 31/31/31 22/22/22 33/33/33 
s 2938
f 22/22/22 31/31/31 10/10/10 
s 2939
f 32/32/32 8/8/8 10/10/10 
s 2940
f 22/22/22 23/23/23 34/34/34 
s 2941
f 22/22/22 34/34/34 33/33/33 
s 2942
f 35/35/35 28/28/28 36/36/36 
s 2943
f 28/28/28 35/35/35 27/27/27 
s 2944
f 29/29/29 36/36/36 28/28/28 
s 2945
f 29/29/29 37/37/37 36/36/36 
s 2946
f 37/37/37 29/29/29 30/30/30 
s 2947
f 30/30/30 19/19/19 37/37/37 
s 2948
f 38/38/38 19/39/19 8/8/8 
s 2949
f 19/39/19 38/38/38 37/40/37 
s 2950
f 38/38/38 32/32/32 39/41/39 
s 2951
f 32/32/32 38/38/38 8/8/8 
s 2952
f 32/32/32 40/42/40 39/41/39 
s 2953
f 40/42/40 32/32/32 31/31/31 
s 2954
f 40/42/40 33/33/33 41/43/41 
s 2955
f 33/33/33 40/42/40 31/31/31 
s 2956
f 42/44/42 33/33/33 34/34/34 
s 2957
f 33/33/33 42/44/42 41/43/41 
s 2958
f 42/44/42 23/23/23 43/45/43 
s 2959
f 23/23/23 42/44/42 34/34/34 
s 2960
f 24/24/24 43/45/43 23/23/23 
s 2961
f 43/45/43 24/24/24 44/46/44 
s 2962
f 35/35/35 24/24/24 27/27/27 
s 2963
f 24/24/24 35/35/35 44/46/44 
s 2964
f 45/47/45 36/36/36 46/48/46 
s 2965
f 36/36/36 45/47/45 35/35/35 
s 2966
f 46/48/46 37/37/37 47/49/47 
s 2967
f 37/37/37 46/48/46 36/36/36 
s 2968
f 47/50/47 38/38/38 48/51/48 
s 2969
f 38/38/38 47/50/47 37/40/37 
s 2970
f 48/51/48 39/41/39 49/52/49 
s 2971
f 39/41/39 48/51/48 38/38/38 
s 2972
f 49/52/49 40/42/40 50/53/50 
s 2973
f 40/42/40 49/52/49 39/41/39 
s 2974
f 50/53/50 41/43/41 51/54/51 
s 2975
f 41/43/41 50/53/50 40/42/40 
s 2976
f 51/54/51 42/44/42 52/55/52 
s 2977
f 42/44/42 51/54/51 41/43/41 
s 2978
f 52/55/52 43/45/43 53/56/53 
s 2979
f 43/45/43 52/55/52 42/44/42 
s 2980
f 53/56/53 44/46/44 45/47/45 
s 2981
f 44/46/44 53/56/53 43/45/43 
s 2982
f 35/35/35 45/47/45 44/46/44 
s 2983
f 54/57/54 46/48/46 55/58/55 
s 2984
f 46/48/46 54/57/54 45/47/45 
s 2985
f 56/59/56 46/48/46 47/49/47 
s 2986
f 46/48/46 56/59/56 55/58/55 
s 2987
f 47/50/47 57/60/57 56/61/56 
s 2988
f 57/60/57 48/51/48 58/62/58 
s 2989
f 48/51/48 57/60/57 47/50/47 
s 2990
f 58/62/58 49/52/49 59/63/59 
s 2991
f 49/52/49 58/62/58 48/51/48 
s 2992
f 59/63/59 50/53/50 60/64/60 
s 2993
f 50/53/50 59/63/59 49/52/49 
s 2994
f 60/64/60 51/54/51 61/65/61 
s 2995
f 51/54/51 60/64/60 50/53/50 
s 2996
f 61/65/61 52/55/52 62/66/62 
s 2997
f 52/55/52 61/65/61 51/54/51 
s 2998
f 62/66/62 53/56/53 63/67/63 
s 2999
f 53/56/53 62/66/62 52/55/52 
s 3000
f 63/67/63 45/47/45 64/68/64 
s 3001
f 45/47/45 63/67/63 53/56/53 
s 3002
f 45/47/45 54/57/54 65/69/65 
s 3037
f 63/67/63 66/70/66 62/66/62 
s 3038
f 66/70/66 63/67/63 67/71/67 
s 3039
f 68/72/68 62/66/62 66/70/66 
s 3040
f 62/66/62 68/72/68 61/65/61 
s 3041
f 69/73/69 61/65/61 68/72/68 
s 3042
f 61/65/61 69/73/69 60/64/60 
s 3043
f 70/74/70 60/64/60 69/73/69 
s 3044
f 60/64/60 70/74/70 59/63/59 
s 3045
f 70/74/70 58/62/58 59/63/59 
s 3046
f 58/62/58 70/74/70 71/75/71 
s 3047
f 72/76/72 73/77/73 74/78/74 
s 3048
f 73/77/73 72/76/72 54/57/54 
s 3049
f 55/58/55 73/77/73 54/57/54 
s 3050
f 73/77/73 55/58/55 75/79/75 
s 3085
f 76/80/76 55/58/55 56/59/56 
s 3086
f 55/58/55 77/81/77 75/79/75 
s 3087
f 77/81/77 55/58/55 76/80/76 
s 3088
f 57/60/57 58/62/58 78/82/78 
s 3089
f 78/82/78 58/62/58 79/83/79 
s 3090
f 80/84/80 71/75/71 81/85/81 
s 3091
f 71/75/71 79/83/79 58/62/58 
s 3092
f 79/83/79 71/75/71 80/84/80 
s 3093
f 65/69/65 54/57/54 72/76/72 
s 3094
f 45/47/45 65/69/65 64/68/64 
s 3095
f 82/86/82 63/67/63 64/68/64 
s 3096
f 83/87/83 63/67/63 82/86/82 
s 3097
f 63/67/63 84/88/84 67/71/67 
s 3098
f 84/88/84 63/67/63 83/87/83 
s 3099
f 74/78/74 73/77/73 85/89/85 
s 3100
f 86/90/86 75/79/75 77/81/77 
s 3101
f 70/74/70 87/91/87 71/75/71 
s 3102
f 70/74/70 88/92/88 87/91/87 
s 3103
f 88/92/88 70/74/70 69/73/69 
s 3104
f 69/73/69 89/93/89 88/92/88 
s 3105
f 89/93/89 69/73/69 68/72/68 
s 3106
f 89/93/89 66/70/66 90/94/90 
s 3107
f 66/70/66 89/93/89 68/72/68 
s 3108
f 67/71/67 90/94/90 66/70/66 
s 3109
f 90/94/90 67/71/67 91/95/91 
s 3110
f 92/96/92 91/95/91 67/71/67 
s 3132
f 92/96/92 67/71/67 84/88/84 
s 3135
f 81/85/81 71/75/71 87/91/87 
s 3424
f 93/97/93 7/7/7 9/9/9 
s 3425
f 7/7/7 93/97/93 12/12/12 
s 3434
f 8/8/8 5/98/5 9/9/9 
s 3435
f 5/98/5 8/8/8 19/39/19 
s 3436
f 9/9/9 6/99/6 93/97/93 
s 3437
f 6/99/6 9/9/9 5/98/5 
s 4096
f 15/15/94 13/13/95 12/12/96 2/2/97 
f 12/12/96 93/97/98 6/6/99 2/2/97 
f 3/3/100 2/2/97 6/6/99 
f 57/60/101 78/82/102 79/83/103 76/80/104 
f 80/84/105 81/85/106 86/90/107 77/81/108 
f 79/83/103 80/84/105 77/81/108 76/80/104 
f 56/61/109 57/60/101 76/80/104 
f 85/89/110 92/96/111 84/88/112 83/87/113 
f 85/89/110 83/87/113 82/86/114 64/68/115 
f 85/89/110 64/68/115 65/69/116 74/78/117 
f 65/69/116 72/76/118 74/78/117 
f 94/85/119 95/91/120 96/92/121 97/90/122 
f 96/92/121 98/93/123 99/94/124 100/96/125 
f 99/94/124 101/95/126 100/96/125 
f 97/90/122 96/92/121 100/96/125 102/77/127 
f 100/96/125 103/89/128 102/77/127 
f 97/90/122 102/77/127 104/79/129 
s off
f 75/79/130 104/79/130 102/77/130 73/77/130 
f 73/77/131 102/77/131 103/89/131 85/89/131 
f 85/89/132 103/89/132 100/96/132 92/96/132 
f 92/96/133 100/96/133 101/95/133 91/95/133 
f 91/95/134 101/95/134 99/94/134 90/94/134 
f 90/94/135 99/94/135 98/93/135 89/93/135 
f 89/93/136 98/93/136 96/92/136 88/92/136 
f 88/92/137 96/92/137 95/91/137 87/91/137 
f 87/91/138 95/91/138 94/85/138 81/85/138 
f 81/85/139 94/85/139 97/90/139 86/90/139 
f 86/90/140 97/90/140 104/79/140 75/79/140 
# 22 polygons - 160 triangles

